<?xml version="1.0" encoding="UTF-8"?>
<svg id="a" data-name="Layer 1" xmlns="http://www.w3.org/2000/svg" width="16.173in" height="7.383in" viewBox="0 0 1164.428 531.545">
  <defs>
    <style>
      .b, .c, .d, .e, .f, .g, .h, .i, .j {
        stroke-width: 0px;
      }

      .c {
        fill: #8993b8;
      }

      .d {
        fill: #236666;
      }

      .e {
        fill: #e23f24;
      }

      .f {
        fill: #36c;
      }

      .g {
        fill: #339;
      }

      .h {
        fill: #8ea1e4;
      }

      .i {
        fill: #fff;
      }

      .j {
        fill: #fc3;
      }
    </style>
  </defs>
  <ellipse class="d" cx="323.084" cy="445.9" rx="247.725" ry="81.645"/>
  <path class="b" d="m323.084,531.545c-66.583,0-129.237-8.564-176.42-24.114-48.561-16.005-75.305-37.857-75.305-61.531s26.744-45.526,75.305-61.531c47.182-15.55,109.836-24.114,176.42-24.114s129.238,8.564,176.42,24.114c48.561,16.005,75.305,37.857,75.305,61.531s-26.744,45.526-75.305,61.531c-47.183,15.55-109.836,24.114-176.42,24.114Zm0-163.291c-65.755,0-127.52,8.421-173.916,23.712-44.365,14.622-69.809,34.279-69.809,53.933s25.444,39.311,69.809,53.933c46.396,15.291,108.16,23.712,173.916,23.712s127.521-8.421,173.916-23.712c44.365-14.622,69.809-34.279,69.809-53.933s-25.444-39.312-69.809-53.933c-46.396-15.291-108.16-23.712-173.916-23.712Z"/>
  <path class="e" d="m409.473,428.766c2.532-.141,3.973-3.15,5.445-4.938,2.334-3.541,6.675-10.329,3.527-14.366-2.674-2.195-5.726,2.441-8.534,1.668-2.125-.513-4.477-3.705-7.101-2.737l-.142.056c-4.268,2.445-1.201,8.976.609,12.372,1.469,2.471,3.688,7.41,6.196,7.945Z"/>
  <path class="e" d="m291.519,372.706c.664.633,1.634.934,2.322.406,1.276-1.11.512-3.844-1.093-4.177l-.155-.008c-1.637.25-2.566,2.693-1.074,3.779Z"/>
  <path class="h" d="m103.831,411.866c.802-1.204,1.837-3.012,1.601-4.173-.164-1.474-2.158-2.307-3.639-2.729-10.132-2.735-20.327-5.573-30.639-7.195-4.335-.428-6.387,3.176-8.573,6.669-1.066,1.647-2.048,3.414-3.171,5.034-1.077,1.55-2.313,2.708-3.146,2.753-2.334-.449.338-5.357,1.01-6.673,1.304-3.001,5.223-6.851,3.844-8.856-.883-1.003-2.781-1.274-4.158-1.505-5.58-.685-11.257-1.787-16.906-1.727-2.873.167-4.943,2.172-6.444,4.562-8.142,12.47-17.972,24.103-23.381,38.052-11.108,23.43,10.613,38.675,32.663,36.317l.189-.024c12.845-1.612,22.546-11.459,30.781-20.682,10.959-12.463,20.89-25.932,29.969-39.823Zm-41.774,10.013c-6.759-1.528-13.539-2.978-20.333-4.072-4.367-.873-9.159-1.104-13.271-2.797-1.273-.636-1.963-1.502-1.723-2.143.421-1.145,3.001-1.128,4.343-.942,13.975,1.9,27.878,4.759,41.637,7.978,4.72,1.085,9.48,2.033,14.237,2.892,1.989.177,6.338,2.383,3.086,4.007l-.133.049c-1.373.487-3.425.161-4.997-.112-7.684-1.321-15.251-3.14-22.846-4.861Z"/>
  <path class="h" d="m174.873,274.238c3.218,3.007,8.052,3.834,12.358,4.417,5.435.671,11.014,1.37,16.521,2.073,17.015,2.159,34.041,4.286,51.155,5.38,34.939,1.647,69.799,4.852,104.747,6.441,8.03.245,16.085.334,24.102.132,4.287-.132,9.219-.613,12.908-2.446,6.147-3.058,5.415-11.71,5.865-17.727.277-34.103-1.044-68.343.305-102.457.319-10.45.746-20.988-.751-31.37-.798-6.125-3.26-12.132-10.124-12.794-14.145-2.157-28.59-2.597-42.817-3.883-48.737-3.103-97.598-4.745-146.434-5.79-8.583.363-21.524-1.808-25.584,7.978-5.191,19.403-4.647,39.927-5.886,59.831l-.01.187c-1.351,24.787-2.133,49.714-1.22,74.532.222,5.344.833,11.658,4.866,15.492Z"/>
  <path class="c" d="m440.89,84.004c.002-.016.005-.031.007-.045-.059-.008-.118-.015-.178-.025.047.068.097.134.143.203.008-.038.016-.076.023-.114l.005-.02Z"/>
  <path class="g" d="m109.904,418.303c-.208-2.879-2.331.806-3.058,1.763-11.203,16.516-22.52,32.758-36.78,46.898-.638.661-2.298,2.08-2.145,2.63.117.211.746.103,1.716-.23,14.288-5.446,27.326-15.163,34.946-28.519,4.119-6.616,5.309-14.806,5.329-22.408l-.007-.134Z"/>
  <path class="g" d="m155.758,283.284c.418,1.575-.234,10.356,2.262,9.128,1.249-.571,3.359-4.397,5.456-5.731.959-.759,2.462-.901,2.178.788-.256,2.424-2.656,4.907-3.378,7.097-1.09,3.962,6.485,3.581,9.508,4.315,30.339,2.815,60.63,6.298,90.975,9.111,34.29,2.196,68.504,6.928,102.899,6.729,11.411.366,22.907,1.582,34.31.759,2.833-.249,6.22-.217,7.562-1.52,2.243-2.492-.878-6.469-.813-9.839-.118-1.177.392-3.401,1.905-2.109,1.086.818,2.053,3.265,2.681,4.117,1.091.988,1.061-4.222,1.087-6.064,1.282-53.824.349-107.704.343-161.513-.182-4.85-.573-9.711-.939-14.569-.181-1.272-.136-2.828-1.011-3.753-1.156-.745-3.541,2.12-4.38,1.102-1.218-2.106,1.742-5.369-.512-7.154-1.125-.847-3.537-.967-5.706-1.153-7.648-.49-15.375-1.158-23.061-1.318-48.117-.413-96.093-4.745-144.234-5.388-20.742.068-41.487-2.523-62.164-.724-5.671.461-.035,2.796.496,4.721.609,1.447-1.204,1.627-2.262,1.375-2.126-.286-4.795-2.535-6.796-1.179l-.089.072c-.882.73-1.297,2.399-1.571,4.294-.831,5.752-1.372,11.562-1.75,17.368-.861,13.288-.841,26.642-1.3,39.936-1.642,37.032-2.874,74.088-1.699,111.103Zm251.119-51.992c-.001.031.001.063,0,.091,0-.016-.003-.032-.002-.048l.002-.043Zm0-.107c0,.023-.002.047-.002.07,0-.007,0-.013,0-.019l.002-.051Zm.072-22.663l-.008.193s0-.009,0-.013c.003-.06.006-.12.008-.18Zm-233.449-91.087c-.007.03-.011.06-.019.09-.003.015-.007.029-.01.043.01-.043.02-.09.029-.133Zm.033-.121c-.01.035-.018.072-.026.108-.002.008-.005.017-.007.025.01-.047.024-.09.033-.133Zm-2.127,11.839c1.189-9.437,1.799-16.237,13.105-16.62,36.555-1.152,73.161,1.533,109.728,2.413,26.588,1.522,53.085,2.565,79.594,4.871,7.79.377,15.513,1.155,23.261,1.865,8.467.186,8.561,8.881,9.261,15.436,1.726,19.714.354,39.63.565,59.31-.251,25.021.111,49.541-.324,74.653-.362,7.142-.129,15.177-4.121,21.371-2.208,2.912-6.067,3.415-9.758,3.778-8.849.857-17.823.562-26.83.525-39.909-1.471-79.747-5.105-119.64-7.198-23.224-2.093-46.323-5.391-69.46-7.943-7.71-.454-9.528-4.908-10.28-11.819-.89-7.457-.421-14.485-.662-20.316-.267-7.169-.352-14.585-.25-21.726l.002-.187c1.036-32.771,1.518-65.895,5.808-98.411Z"/>
  <path class="g" d="m526.902,387.865c-11.868,4.926-28.498,36.692-38.638,47.59-1.256,1.35-6.872,8.489-8.371,5.235-.35-1.688,1.332-4.105,2.34-5.748,4.244-6.303,9.135-12.308,13.54-18.548,9.096-12.597,19.332-24.252,28.66-36.657,1.52-2.061,4.737-5.87,4.158-8.228-.837-.653-2.512,1.652-3.298,2.503-1.92,2.421-3.854,4.892-5.838,7.311-9.661,11.256-18.666,23.013-27.878,34.652-3.026,3.443-5.838,7.823-9.734,10.263-4.671,2.018-2.207-4.064-.689-6.025,7.628-11.698,16.711-22.229,25.315-33.239,6.12-7.982,12.155-16.05,18.619-23.756.887-1.099,1.792-2.456,2.34-3.634,1.19-2.393.536-3.487-1.531-1.401-10.731,13.066-21.469,26.158-31.825,39.508-2.545,2.699-14.062,20.271-17.378,17.668-1.307-2.781,3.669-7.598,5.146-10.171,5.148-7.847,10.86-15.298,16.641-22.711,8.264-11.15,17.093-21.592,25.768-32.451,1.404-1.778,2.689-3.779,3.271-5.915.546-1.882.606-3.907.531-5.997-.261-7.338-.547-14.728-.935-22.157-4.012-62.514-4.351-125.181-8.065-187.706-1.178-15.271-1.308-31.419-3.793-46.715-.898-4.32-1.526-7.967-3.345-10.839-1.738-2.477-5.111-1.82-7.709-1.186-5.451,1.3-10.927,2.701-16.389,3.851-1.825.243-4.977.948-5.876-1.072-1.233-3.973,17.865-6.256,14.67-8.039-10.768-2.18-22.314-3.453-33.27-4.594-27.259-2.202-54.595-4.732-81.962-5.495,0,0-28.348-1.041-62.607-.208-3.384.082-61.313,5.692-122.756,8.433-.443.08.687.125,2.68.15.518.007,1.083.013,1.658.018,76.531,1.518,153.329,2.572,229.406,11.641,5.638.615,11.012,1.717,16.645,1.34,4.938-.323,9.771-.808,14.561-1.51,1.518-.236,3.243-.351,4.7-.057,1.334.279,2.387,1.214,1.712,2.478-.832,1.446-2.65,2.042-4.178,2.626-2.827.867-5.758,1.615-8.617,2.499-3.245.981-6.108,1.722-7.105,4.673-.727,2.189-.273,4.906-.284,7.308.06,2.867.05,5.719.096,8.593,1.563,105.231,2.125,210.352,3.308,315.659.075,7.16.117,14.318.222,21.455.003.265.005.543.007.818.849-.519,2.629-.558,4.237-.469,4.609.22,5.635,7.054,6.058,10.736,1.143,11.011,1.545,22.196,1.362,33.296.041,1.513.207,3.577,1.934,1.928,20.142-26.478,40.944-52.773,58.465-81.104,2.491-4.029,9.07-14.953,6.904-16.834-.2-.174-.856-.602-2.88.238Zm-44.922-44.212c1.883-.283,1.568,4.662.158,4.958h-.099c-1.665-.64-1.071-4.538-.059-4.958Zm-1.941-15.037c1.883-.283,1.568,4.661.158,4.957h-.099c-1.665-.64-1.071-4.538-.059-4.957Zm-5.489,23.992c-1.884.283-1.567-4.666-.158-4.962h.099c1.666.641,1.071,4.544.059,4.962Zm-.202-7.466c-1.883.283-1.568-4.661-.158-4.958h.099c1.665.64,1.071,4.538.059,4.958Zm.283-8.45c-1.883.283-1.568-4.661-.158-4.957h.099c1.665.64,1.071,4.538.059,4.957Zm.043-16.257c1.883-.283,1.568,4.662.158,4.958h-.099c-1.665-.64-1.071-4.538-.059-4.958Zm-4.662,39.604c1.883-.284,1.568,4.661.158,4.957h-.099c-1.665-.64-1.071-4.538-.059-4.957Zm-.49-15.295h.099c1.665.64,1.071,4.538.059,4.957-1.883.283-1.568-4.662-.158-4.957Zm1.707,12.241c-1.883.283-1.568-4.661-.158-4.957h.099c1.665.64,1.071,4.538.059,4.957Zm-.2-19.869c1.883-.283,1.568,4.662.158,4.957h-.099c-1.665-.64-1.071-4.538-.059-4.957Zm-1.467-9.044c1.883-.283,1.568,4.661.158,4.958h-.099c-1.665-.64-1.071-4.538-.059-4.958Zm-1.765,8.328c1.883-.283,1.568,4.661.158,4.958h-.099c-1.665-.64-1.071-4.538-.059-4.958Zm-2.058,23.001c1.883-.283,1.568,4.661.158,4.957h-.099c-1.665-.64-1.071-4.538-.059-4.957Zm-.735-5.299l.005-.219c-.047-1.642,1.41-3.918,2.164-1.198.72,3.171-1.874,5.813-2.169,1.417Zm.345,15.587c1.883-.283,1.568,4.662.158,4.958h-.099c-1.665-.64-1.071-4.538-.059-4.958Zm.943-25.082c.721,3.171-1.874,5.812-2.169,1.416l.005-.219c-.047-1.642,1.41-3.917,2.164-1.198Zm-3.457,13.955c-1.883.283-1.568-4.661-.158-4.957h.099c1.665.64,1.071,4.538.059,4.957Zm1.659-18.887c-1.883.283-1.568-4.662-.158-4.958h.099c1.665.64,1.071,4.538.059,4.958Zm-.386-16.898c1.883-.283,1.568,4.661.158,4.957h-.099c-1.665-.64-1.071-4.538-.059-4.957Zm-2.56,21.26c1.883-.283,1.568,4.661.158,4.957h-.099c-1.665-.64-1.071-4.538-.059-4.957Zm-1.501,19.291c1.883-.283,1.568,4.661.158,4.957h-.099c-1.665-.64-1.071-4.538-.059-4.957Zm-1.082-30.691c1.883-.283,1.568,4.662.158,4.958h-.099c-1.665-.64-1.071-4.538-.059-4.958Zm-2.025,16.706c1.883-.283,1.568,4.661.158,4.957h-.099c-1.665-.64-1.071-4.538-.059-4.957Zm13.51,81.227c-.168,2.096-.091,4.24-1.171,5.73-.811,1.196-2.286.626-2.903-.481-2.113-3.498-1.375-8.885-3.29-12.297-1.891-2.558-5.499,1.03-7.884-.283-5.759-4.18,9.052-15.102,13.913-6.231l.096.166c2.181,4.005,1.518,8.879,1.238,13.396Zm3.463-57.414c-1.883.283-1.568-4.662-.158-4.957h.099c1.665.64,1.071,4.538.059,4.957Zm1.221-11.938c-1.883.283-1.568-4.662-.158-4.958h.099c1.665.64,1.071,4.538.059,4.958Zm2.642-23.403c1.883-.283,1.568,4.661.158,4.958h-.099c-1.665-.64-1.071-4.538-.059-4.958Zm.247,15.629c-1.666-.642-1.07-4.541-.059-4.963,1.882-.285,1.568,4.667.158,4.962h-.099Zm1.192,4.57h.099c1.666.64,1.071,4.538.059,4.958-1.883.283-1.568-4.661-.158-4.958Z"/>
  <path class="f" d="m132.963,344.446c36.162,2.316,72.234,4.56,108.572,6.867,49.177,3.104,98.553,6.231,147.777,9.335,15.567.973,31.265,1.99,46.742,2.943,1.875.086,3.488-.103,4.459-.965,1.598-1.278,1.44-4.604,1.39-6.836-.628-64.289-1.238-128.975-1.867-193.421-.139-14.78-.291-29.651-.38-44.37-.044-6.751-.008-13.506.101-20.223.049-3.679-.6-7.658-2.942-10.499-4.885-6.118-13.977-5.718-21.101-6.762-56.798-5.988-113.899-7.627-170.958-9.11-20.073-.487-40.242-.891-60.387-.914-11.036.003-22.057.073-33.058.407-2.67.137-5.457.64-7.469,2.088-5.326,4.163-3.139,14.044-4.329,20.274-5.522,56.738-9.733,113.709-11.773,170.66l-.008.188c-1.048,24.325-.827,48.704-.7,73.064.037,1.775.027,3.818,1.026,5.196.916,1.377,2.716,1.912,4.902,2.08Zm18.535-208.237c.488-7.221.821-14.379,2.082-21.433,1.591-10.31,3.672-16.031,15.162-16.524,29.905-1.376,59.956.335,89.848.998,21.6,1.21,43.214,1.345,64.785,2.567,19.161,1.557,38.355,2.143,57.551,2.518,7.236.114,14.139.239,21.432.99,5.911.824,13.042,1.981,15.16,7.938,2.245,6.59,2.256,13.8,2.528,20.716.353,17.569.396,35.211.313,52.771.477,32.641.606,65.336.207,97.995-.043,5.366-.045,10.735-.192,16.096-.425,5.864.275,13.509-4.497,17.663-3.095,2.441-7.839,2.296-11.792,2.787-11.416,1.287-23.004.526-34.422.17-38.081-.122-75.957-4.274-113.845-7.635-22.58-1.395-44.969-3.929-67.565-5.318-5.809-.387-11.635-.816-17.39-1.675-7.316-1.558-19.129-1.848-21.001-10.918-1.306-6.393-1.331-12.877-1.664-19.415-.251-27.109-.228-54.288.76-81.368l.008-.187c.391-19.636,1.138-39.16,2.531-58.738Z"/>
  <path class="f" d="m454.24,452.826c-.039-3.638-.022-6.319-1.786-8.866-.561-.811-1.205-1.474-1.641-2.052-.069,2.861-.449,5.867-2.088,7.822-6.445,6.729-24.341,4.303-33.341,4.463-21.271-.213-42.43-2.537-63.685-3.321-68.622-2.587-137.309-7.84-205.073-19.124-6.97-1.362-4.699,5.814-4.909,9.998.413,6.397-.839,13.334,2.023,19.269,2.365,4.788,7.217,7.318,12.353,8.474,8.13,1.922,16.653,3.601,25.125,5.004,13.678,2.283,27.444,3.996,41.22,5.572,37.792,4.191,75.566,9.598,113.584,11.834,32.995,1.761,65.866,4.338,98.858,5.09,5.26-.234,11.983-1.265,15.584-4.342,5.08-4.324,3.738-11.72,3.996-17.72.337-7.844-.061-6.972-.221-22.101Z"/>
  <path class="f" d="m136.847,373.708c100.605,5.999,201.131,12.549,301.863,18.285,3.134-.047,3.745-3.011,3.651-5.606-.049-4.704-.038-9.657-.251-13.95-.068-1.676-.529-3.418-2.136-4.186-43.897-4.241-88.225-5.612-132.407-8.895-58.36-3.686-116.584-7.385-174.907-11.064-5.943-.572-5.689,3.025-5.576,7.547.075,4.622-.826,9.896-.061,14.426l.038.133c1.172,3.785,6.482,2.898,9.786,3.31Zm299.393-5.643c.079.121.056.552.072.672v.113c0,.123-.01.295-.033.11.005-.204-.196-.921-.04-.895Zm-10.505,15.076c-.001.024.002.047,0,.075v.008c0-.02-.002-.044-.001-.067v-.016Zm-129.88-17.041c6.89,5.574-.437,15.522-7.277,9.353l-.139-.143c-4.971-4.722,1.826-13.585,7.415-9.21Zm-136.682-3.845c2.041-.967,5.36,1.522,8.001,1.623,18.747.533,37.703.9,56.363,1.875,15.923.86,31.875,2.417,47.703,3.606,5.675-.213,1.389-2-1.37-2.146-19.485-2.346-39.115-3.71-58.695-4.792-12.22-.924-24.458-1.231-36.682-2.018-2.771-.164-6.133-.28-8.555-.878-1.517-.385-2.367-1.011-2.201-1.5.092-.74,2.736-1.05,3.952-1.001,4.106.094,8.358.299,12.571.39,7.39.154,14.69.033,22.033.453,20.729,1.177,41.4,2.206,62.017,4.624,3.801.401,7.712.747,11.39,1.202,1.902.279,3.676.734,5.03,2.05,3.223,3.1,1.94,10.139-2.856,10.955-4.658.824-9.541-.613-14.246-.76-24.532-1.787-49.082-2.874-73.614-3.971-7.575-.33-15.272-.308-22.786-.539-2.675-.074-5.899-.086-7.95-1.856l-.125-.11c-2.102-1.741-2.369-6.002.02-7.207Z"/>
  <path class="f" d="m403.742,445.87c8.366.23,16.749.6,25.121.32,11.064-.049,14.094-4.57,13.774-15.067-.09-9.586-.178-19.356-.279-29.013.158-3.403-1.155-5.993-5.061-6.155-43.068-2.693-86.097-5.246-129.13-7.895-35.314-2.155-70.67-4.304-105.977-6.462-23.291-1.401-46.595-2.87-69.929-4.247-1.818-.071-3.355.163-4.248,1.088-.977.923-1.231,2.823-1.256,4.311-.181,6.974-.459,14.009-.44,21.035-.285,6.616-.053,14.295,7.285,16.813l.172.066c40.197,8.888,81.514,12.15,122.388,16.618,49.133,3.906,98.413,5.405,147.58,8.587Zm-.076-41.809c2.319-.025,4.447,1.559,6.701,1.666,1.698.123,3.362-.663,5.048-1.014,5.128-1.173,8.927,4.049,8.509,8.964-.528,5.435-3.895,10.136-6.961,14.483-7.583,10.781-9.843,6.018-15.524-2.7l-.098-.159c-2.201-3.809-4.893-8.139-4.9-12.751-.016-4.23,2.857-8.631,7.224-8.489Z"/>
  <path class="b" d="m126.444,354.846c-1.585-2.364-4.068-4.538-7.529-6.198-3.735-2.944-22.89-5.949-14.549-12.6,4.294-2.233,9.385-3.581,14.855-4.345-.563-1.663-.88-3.436-.885-5.266-.002-.932.11-1.839.303-2.722-8.464,1.021-18.239,2.583-23.396,9.898-3.453,5.236-1.116,12.303,4.305,15.293,4.532,2.782,9.975,3.976,14.712,6.457,4.107,1.616,8.307,6.887,2.718,8.91-5.215,1.416-10.732-.128-15.97-.885-4.941-.834-10.086-2.039-15.221-1.487-7.759.543-15.005,8.232-12.497,15.985,1.125,2.273,3.757,2.47,5.408.437,2.379-3.338,3.626-8.062,8.449-8.287,8.62-.451,16.999,2.959,25.721,2.908,5.984.322,10.393-1.537,12.994-4.42l.583-13.677Z"/>
  <path class="b" d="m115.411,403.423l-.1-.143c-1.806-2.579-5.087-3.972-8.115-4.882-10.046-2.976-20.063-5.624-30.272-7.752-12.215-2.741-24.677-4.556-37.168-5.387-6.276-.252-9.832,5.548-13.128,9.975-12.786,17.936-35.081,46.341-23.3,66.866,11.199,19.983,37.534,21.027,57.649,17.093,28.224-5.304,57.014-28.206,56.193-58.972.231-5.466,1.31-12.181-1.759-16.797Zm-72.331,68.948l-.189.024c-22.05,2.358-43.772-12.888-32.663-36.317,5.409-13.949,15.239-25.582,23.381-38.052,1.501-2.39,3.571-4.394,6.444-4.562,5.649-.06,11.326,1.042,16.906,1.727,1.377.231,3.275.501,4.158,1.505,1.38,2.005-2.54,5.855-3.844,8.856-.672,1.316-3.343,6.223-1.01,6.673.833-.045,2.07-1.203,3.146-2.753,1.122-1.619,2.105-3.387,3.171-5.034,2.186-3.493,4.238-7.097,8.573-6.669,10.313,1.622,20.507,4.46,30.639,7.195,1.481.422,3.475,1.255,3.639,2.729.236,1.161-.799,2.969-1.601,4.173-9.08,13.891-19.01,27.36-29.969,39.823-8.236,9.223-17.936,19.07-30.781,20.682Zm61.502-31.526c-7.62,13.356-20.658,23.073-34.946,28.519-.97.333-1.599.441-1.716.23-.154-.55,1.507-1.969,2.145-2.63,14.26-14.14,25.577-30.382,36.78-46.898.727-.958,2.85-4.642,3.058-1.763l.007.134c-.019,7.602-1.21,15.792-5.329,22.408Z"/>
  <path class="b" d="m89.9,426.852l.133-.049c3.252-1.625-1.097-3.83-3.086-4.007-4.757-.859-9.517-1.806-14.237-2.892-13.759-3.219-27.662-6.078-41.637-7.978-1.341-.186-3.922-.203-4.343.942-.241.641.45,1.507,1.723,2.143,4.112,1.693,8.905,1.924,13.271,2.797,6.794,1.094,13.574,2.544,20.333,4.072,7.595,1.721,15.162,3.539,22.846,4.861,1.572.274,3.624.599,4.997.112Z"/>
  <path class="b" d="m537.086,375.888l-.002-.168c-.654-49.648-4.817-99.273-5.975-148.918-1.28-42.13-2.886-84.236-5.722-126.288-1.637-12.06-.787-28.318-9.531-37.494-4.153-3.824-10.089-4.63-15.43-5.9-31.85-6.525-64.512-7.609-96.892-10.043-71.738-4.369-143.314,4.319-214.897,8.334-14.912,2.347-39.193,1.328-51.171,9.318-3.594,2.978-4.624,8.196-5.005,12.774-5.795,68.629-11.933,137.337-13.5,206.251-.081,11.445-.069,22.915-.089,34.348.139,2.421-.358,3.864-1.434,4.565l-.395,9.262c1.342,1.159,1.93,3.025,1.833,5.121.014,11.508.034,23.099-.001,34.578-.009,14.448-1.04,28.933-.084,43.326.624,12.132,4.343,11.031,13.609,14.792,2.648,2.083,1.886,5.922,2.063,8.909.304,8.517-.34,17.212.751,25.725.856,6.925,7.121,10.276,13.531,11.502,28.548,7.219,57.898,10.568,87.127,13.727,69.355,9.419,139.235,13.421,209.176,15.946,12.965,1.239,21.095-8.656,28.117-18.075,9.697-12.886,19.406-25.656,29.054-38.562,10.781-15.009,21.904-29.892,30.728-46.167,4.791-8,4.175-18.102,4.139-26.863Zm-409.352-111.782l.008-.188c2.04-56.951,6.25-113.922,11.773-170.66,1.19-6.23-.997-16.111,4.329-20.274,2.012-1.448,4.799-1.951,7.469-2.088,11.002-.334,22.022-.404,33.058-.407,20.146.023,40.314.427,60.387.914,57.059,1.483,114.16,3.123,170.958,9.11,7.123,1.044,16.216.644,21.101,6.762,2.342,2.841,2.991,6.82,2.942,10.499-.109,6.717-.145,13.472-.101,20.223.089,14.719.241,29.59.38,44.37.629,64.446,1.239,129.132,1.867,193.421.05,2.232.207,5.558-1.39,6.836-.97.862-2.583,1.051-4.459.965-15.477-.953-31.175-1.97-46.742-2.943-49.224-3.104-98.6-6.23-147.777-9.335-36.338-2.307-72.41-4.551-108.572-6.867-2.186-.168-3.986-.702-4.902-2.08-.999-1.378-.99-3.421-1.026-5.196-.128-24.36-.349-48.738.7-73.064Zm-.711,106.158c-.765-4.53.136-9.804.061-14.426-.113-4.522-.367-8.119,5.576-7.547,58.323,3.679,116.546,7.378,174.907,11.064,44.183,3.283,88.51,4.654,132.407,8.895,1.607.768,2.068,2.51,2.136,4.186.213,4.293.202,9.247.251,13.95.094,2.595-.517,5.559-3.651,5.606-100.732-5.736-201.257-12.286-301.863-18.285-3.304-.412-8.614.474-9.786-3.31l-.038-.133Zm6.751,50.4l-.172-.066c-7.338-2.519-7.57-10.197-7.285-16.813-.02-7.026.259-14.061.44-21.035.026-1.488.279-3.389,1.256-4.311.894-.925,2.43-1.159,4.248-1.088,23.333,1.377,46.638,2.846,69.929,4.247,35.307,2.158,70.663,4.306,105.977,6.462,43.033,2.649,86.063,5.202,129.13,7.895,3.905.162,5.219,2.752,5.061,6.155.101,9.657.189,19.427.279,29.013.32,10.497-2.711,15.018-13.774,15.067-8.373.28-16.755-.09-25.121-.32-49.167-3.182-98.447-4.681-147.58-8.587-40.875-4.467-82.191-7.73-122.388-16.618Zm316.691,71.982c-3.601,3.077-10.325,4.109-15.584,4.342-32.992-.752-65.863-3.329-98.858-5.09-38.018-2.236-75.792-7.643-113.584-11.834-13.776-1.577-27.543-3.289-41.22-5.572-8.472-1.402-16.995-3.082-25.125-5.004-5.136-1.156-9.987-3.686-12.353-8.474-2.862-5.936-1.61-12.872-2.023-19.269.209-4.184-2.062-11.361,4.909-9.998,67.764,11.284,136.452,16.537,205.073,19.124,21.255.784,42.414,3.108,63.685,3.321,9.001-.16,26.896,2.265,33.341-4.463,1.639-1.954,2.019-4.961,2.088-7.822.436.577,1.079,1.241,1.641,2.052,1.763,2.547,1.747,5.229,1.786,8.866.16,15.129.559,14.256.221,22.101-.258,6,1.084,13.396-3.996,17.72Zm72.414-88.186c-17.521,28.331-38.322,54.626-58.465,81.104-1.728,1.649-1.893-.415-1.934-1.928.183-11.1-.218-22.286-1.362-33.296-.423-3.682-1.449-10.516-6.058-10.736-1.608-.088-3.387-.049-4.237.469-.002-.274-.004-.553-.007-.818-.104-7.136-.147-14.294-.222-21.455-1.183-105.308-1.745-210.429-3.308-315.659-.046-2.873-.036-5.726-.096-8.593.011-2.401-.443-5.118.284-7.308.997-2.951,3.86-3.692,7.105-4.673,2.859-.883,5.789-1.631,8.617-2.499,1.528-.583,3.346-1.18,4.178-2.626.675-1.263-.378-2.199-1.712-2.478-1.457-.293-3.182-.179-4.7.057-4.79.703-9.623,1.187-14.561,1.51-5.633.377-11.007-.725-16.645-1.34-76.078-9.068-152.875-10.123-229.406-11.641-.576-.005-1.141-.011-1.658-.018-1.992-.026-3.122-.071-2.68-.15,61.443-2.741,119.371-8.351,122.756-8.433,34.26-.833,62.607.208,62.607.208,27.367.763,54.704,3.293,81.962,5.495,10.956,1.142,22.502,2.415,33.27,4.594,3.196,1.783-15.903,4.066-14.67,8.039.898,2.02,4.05,1.315,5.876,1.072,5.462-1.15,10.938-2.551,16.389-3.851,2.598-.634,5.972-1.291,7.709,1.186,1.819,2.872,2.446,6.518,3.345,10.839,2.486,15.296,2.615,31.444,3.793,46.715,3.713,62.526,4.052,125.193,8.065,187.706.388,7.429.675,14.819.935,22.157.075,2.091.015,4.116-.531,5.997-.583,2.135-1.868,4.137-3.271,5.915-8.675,10.859-17.504,21.301-25.768,32.451-5.781,7.413-11.493,14.865-16.641,22.711-1.477,2.573-6.453,7.39-5.146,10.171,3.316,2.603,14.834-14.969,17.378-17.668,10.356-13.35,21.094-26.442,31.825-39.508,2.066-2.086,2.721-.992,1.531,1.401-.548,1.178-1.453,2.535-2.34,3.634-6.464,7.706-12.499,15.774-18.619,23.756-8.604,11.01-17.686,21.541-25.315,33.239-1.518,1.962-3.982,8.044.689,6.025,3.895-2.44,6.708-6.82,9.734-10.263,9.213-11.639,18.218-23.396,27.878-34.652,1.983-2.419,3.917-4.89,5.838-7.311.785-.851,2.461-3.156,3.298-2.503.579,2.358-2.637,6.166-4.158,8.228-9.329,12.405-19.565,24.06-28.66,36.657-4.405,6.241-9.296,12.246-13.54,18.548-1.008,1.643-2.69,4.06-2.34,5.748,1.499,3.254,7.115-3.885,8.371-5.235,10.14-10.898,26.77-42.665,38.638-47.59,2.024-.84,2.681-.412,2.88-.238,2.166,1.881-4.412,12.806-6.904,16.834Z"/>
  <path class="b" d="m440.72,83.934c.059.009.119.017.178.025-.002.014-.005.029-.007.045l-.005.02c-.007.038-.015.076-.023.114-.046-.069-.096-.135-.143-.203Z"/>
  <path class="b" d="m461.629,500.326s0-.004.004-.008c-.025.018-.048.035-.073.052.023-.015.046-.03.069-.044Z"/>
  <path class="b" d="m469.115,417.008c-4.861-8.871-19.673,2.05-13.913,6.231,2.385,1.313,5.992-2.274,7.884.283,1.915,3.412,1.177,8.798,3.29,12.297.617,1.106,2.092,1.677,2.903.481,1.081-1.49,1.003-3.634,1.171-5.73.28-4.516.943-9.39-1.238-13.396l-.096-.166Z"/>
  <path class="b" d="m148.959,195.134c-.987,27.08-1.011,54.259-.76,81.368.333,6.538.359,13.022,1.664,19.415,1.872,9.07,13.685,9.36,21.001,10.918,5.755.859,11.581,1.287,17.39,1.675,22.596,1.388,44.985,3.923,67.565,5.318,37.888,3.36,75.764,7.512,113.845,7.635,11.418.356,23.005,1.117,34.422-.17,3.953-.491,8.697-.346,11.792-2.787,4.771-4.154,4.072-11.799,4.497-17.663.148-5.361.15-10.73.192-16.096.399-32.659.269-65.354-.207-97.995.083-17.56.039-35.202-.313-52.771-.273-6.916-.283-14.127-2.528-20.716-2.119-5.957-9.25-7.114-15.16-7.938-7.293-.75-14.196-.875-21.432-.99-19.197-.375-38.39-.96-57.551-2.518-21.572-1.222-43.185-1.357-64.785-2.567-29.891-.663-59.943-2.374-89.848-.998-11.49.493-13.571,6.215-15.162,16.524-1.261,7.054-1.595,14.211-2.082,21.433-1.393,19.578-2.14,39.102-2.531,58.738l-.008.187Zm9.797-62.89c.378-5.806.918-11.616,1.75-17.368.275-1.895.689-3.564,1.571-4.294l.089-.072c2.001-1.356,4.67.893,6.796,1.179,1.058.252,2.871.072,2.262-1.375-.531-1.925-6.167-4.261-.496-4.721,20.676-1.8,41.421.792,62.164.724,48.141.643,96.117,4.975,144.234,5.388,7.687.159,15.413.828,23.061,1.318,2.169.186,4.58.306,5.706,1.153,2.254,1.785-.706,5.048.512,7.154.838,1.018,3.224-1.846,4.38-1.102.875.925.83,2.481,1.011,3.753.367,4.857.758,9.718.939,14.569.006,53.809.939,107.688-.343,161.513-.026,1.842.004,7.052-1.087,6.064-.628-.852-1.594-3.3-2.681-4.117-1.513-1.292-2.023.932-1.905,2.109-.065,3.37,3.057,7.348.813,9.839-1.342,1.304-4.729,1.272-7.562,1.52-11.404.823-22.899-.393-34.31-.759-34.395.199-68.61-4.533-102.899-6.729-30.346-2.813-60.636-6.296-90.975-9.111-3.022-.734-10.598-.353-9.508-4.315.722-2.19,3.121-4.673,3.378-7.097.285-1.688-1.219-1.547-2.178-.788-2.097,1.334-4.207,5.16-5.456,5.731-2.496,1.229-1.844-7.553-2.262-9.128-1.175-37.015.057-74.072,1.699-111.103.459-13.294.439-26.649,1.3-39.936Z"/>
  <path class="b" d="m401.342,425.302l.098.159c5.68,8.718,7.941,13.481,15.524,2.7,3.065-4.347,6.432-9.048,6.961-14.483.418-4.916-3.38-10.137-8.509-8.964-1.686.35-3.35,1.136-5.048,1.014-2.254-.107-4.382-1.691-6.701-1.666-4.367-.141-7.24,4.26-7.224,8.489.007,4.612,2.699,8.943,4.9,12.751Zm1.326-16.853l.142-.056c2.624-.968,4.976,2.224,7.101,2.737,2.808.773,5.86-3.863,8.534-1.668,3.148,4.037-1.194,10.825-3.527,14.366-1.472,1.788-2.913,4.797-5.445,4.938-2.507-.535-4.726-5.474-6.196-7.945-1.81-3.395-4.877-9.926-.609-12.372Z"/>
  <path class="b" d="m425.736,383.216c.001-.028-.002-.051,0-.075v.016c-.002.024.001.048,0,.067v-.008Z"/>
  <path class="b" d="m436.313,368.85v-.113c-.016-.12.007-.551-.072-.672-.156-.026.045.691.04.895.022.185.033.013.033-.11Z"/>
  <path class="b" d="m406.877,231.185l-.002.051c0,.006,0,.012,0,.019,0-.023,0-.047.002-.07Z"/>
  <path class="b" d="m406.949,208.522c-.003.06-.006.12-.008.18,0,.004,0,.009,0,.013l.008-.193Z"/>
  <path class="b" d="m165.596,227.751c-.103,7.141-.018,14.557.25,21.726.241,5.831-.229,12.86.662,20.316.752,6.911,2.57,11.365,10.28,11.819,23.138,2.553,46.237,5.85,69.46,7.943,39.893,2.093,79.731,5.727,119.64,7.198,9.008.037,17.982.332,26.83-.525,3.691-.363,7.55-.866,9.758-3.778,3.991-6.194,3.759-14.229,4.121-21.371.436-25.111.073-49.631.324-74.653-.212-19.681,1.16-39.596-.565-59.31-.7-6.555-.794-15.25-9.261-15.436-7.748-.71-15.471-1.488-23.261-1.865-26.51-2.306-53.006-3.349-79.594-4.871-36.567-.88-73.172-3.565-109.728-2.413-11.305.383-11.915,7.184-13.105,16.62-4.29,32.516-4.772,65.64-5.808,98.411l-.002.187Zm5.631-43.539l.01-.187c1.239-19.904.695-40.428,5.886-59.831,4.06-9.786,17.001-7.616,25.584-7.978,48.836,1.044,97.697,2.686,146.434,5.79,14.227,1.285,28.672,1.725,42.817,3.883,6.863.662,9.326,6.669,10.124,12.794,1.496,10.382,1.07,20.92.751,31.37-1.349,34.114-.027,68.353-.305,102.457-.45,6.017.282,14.67-5.865,17.727-3.689,1.833-8.621,2.314-12.908,2.446-8.017.202-16.072.113-24.102-.132-34.949-1.589-69.808-4.794-104.747-6.441-17.114-1.094-34.14-3.222-51.155-5.38-5.507-.703-11.085-1.403-16.521-2.073-4.306-.583-9.14-1.411-12.358-4.417-4.032-3.834-4.643-10.149-4.866-15.492-.913-24.818-.131-49.745,1.22-74.532Z"/>
  <path class="b" d="m406.877,231.292l-.002.043c0,.016.003.032.002.048.001-.028-.001-.059,0-.091Z"/>
  <path class="b" d="m173.507,117.422c.009-.036.016-.073.026-.108-.01.043-.023.086-.033.133.002-.008.005-.017.007-.025Z"/>
  <path class="b" d="m173.5,117.435c-.01.043-.02.09-.029.133.003-.014.007-.028.01-.043.007-.03.012-.06.019-.09Z"/>
  <path class="b" d="m464.167,327.735h.099c1.41-.297,1.725-5.241-.158-4.958-1.012.419-1.606,4.318.059,4.958Z"/>
  <path class="b" d="m459.023,337.595h.099c1.41-.297,1.725-5.242-.158-4.958-1.012.419-1.606,4.318.059,4.958Z"/>
  <path class="b" d="m457.097,354.299c1.41-.296,1.725-5.241-.158-4.957-1.012.419-1.606,4.318.059,4.958h.099Z"/>
  <path class="b" d="m460.105,368.285h.099c1.409-.297,1.725-5.242-.158-4.958-1.012.419-1.606,4.318.059,4.958Z"/>
  <path class="b" d="m465.409,374.646h.099c1.41-.297,1.725-5.242-.158-4.958-1.012.419-1.606,4.318.059,4.958Z"/>
  <path class="b" d="m473.853,368.197h-.099c-1.41.297-1.725,5.242.158,4.958,1.012-.419,1.606-4.318-.059-4.958Z"/>
  <path class="b" d="m479.371,362.971c1.012-.419,1.607-4.318-.059-4.958h-.099c-1.41.297-1.725,5.242.158,4.958Z"/>
  <path class="b" d="m482.039,348.611h.099c1.41-.297,1.725-5.242-.158-4.958-1.012.419-1.606,4.318.059,4.958Z"/>
  <path class="b" d="m480.098,333.574h.099c1.41-.297,1.725-5.241-.158-4.958-1.012.419-1.606,4.318.059,4.958Z"/>
  <path class="b" d="m474.733,325.392h.099c1.41-.297,1.725-5.242-.158-4.958-1.012.419-1.606,4.318.059,4.958Z"/>
  <path class="b" d="m469.622,333.029h.099c1.41-.297,1.725-5.242-.158-4.958-1.012.419-1.606,4.318.059,4.958Z"/>
  <path class="b" d="m464.435,334.715h-.099c-1.41.297-1.725,5.242.158,4.958,1.012-.419,1.606-4.318-.059-4.958Z"/>
  <path class="b" d="m461.606,348.994h.099c1.41-.297,1.725-5.241-.158-4.958-1.012.419-1.606,4.318.059,4.958Z"/>
  <path class="b" d="m462.776,353.603h-.099c-1.41.297-1.725,5.241.158,4.958,1.012-.419,1.606-4.317-.059-4.958Z"/>
  <path class="b" d="m465.799,364.358h.099c1.41-.297,1.725-5.241-.158-4.958-1.012.419-1.606,4.318.059,4.958Z"/>
  <path class="b" d="m470.072,364.996h.099c1.409-.297,1.725-5.242-.158-4.958-1.012.419-1.606,4.318.059,4.958Z"/>
  <path class="b" d="m475.073,356.259h-.099c-1.41.297-1.725,5.242.158,4.958,1.012-.419,1.606-4.318-.059-4.958Z"/>
  <path class="b" d="m477.962,348.48c-1.011.422-1.607,4.321.059,4.963h.099c1.41-.296,1.725-5.248-.158-4.963Z"/>
  <path class="b" d="m477.932,342.772c1.41-.296,1.725-5.241-.158-4.958-1.012.419-1.606,4.318.059,4.958h.099Z"/>
  <path class="b" d="m474.572,331.733h-.099c-1.41.297-1.725,5.241.158,4.958,1.012-.419,1.606-4.318-.059-4.958Z"/>
  <path class="b" d="m467.857,341.357h.099c1.41-.297,1.725-5.242-.158-4.958-1.012.419-1.606,4.318.059,4.958Z"/>
  <path class="b" d="m464.129,345.803l-.005.219c.295,4.396,2.889,1.754,2.169-1.416-.754-2.719-2.21-.444-2.164,1.198Z"/>
  <path class="b" d="m467.174,352.684c-.754-2.72-2.211-.444-2.164,1.198l-.005.219c.295,4.396,2.889,1.754,2.169-1.417Z"/>
  <path class="b" d="m471.171,352.025h-.099c-1.41.297-1.725,5.242.158,4.958,1.012-.419,1.606-4.318-.059-4.958Z"/>
  <path class="b" d="m474.492,347.644h-.099c-1.409.297-1.726,5.246.158,4.963,1.012-.418,1.607-4.321-.059-4.963Z"/>
  <path class="b" d="m474.289,340.183h-.099c-1.41.297-1.725,5.242.158,4.958,1.012-.419,1.606-4.318-.059-4.958Z"/>
  <path class="b" d="m471.089,342.073h.099c1.41-.297,1.725-5.242-.158-4.958-1.012.419-1.606,4.318.059,4.958Z"/>
  <path class="b" d="m469.622,344.742h-.099c-1.41.297-1.725,5.242.158,4.958,1.012-.419,1.606-4.318-.059-4.958Z"/>
  <path class="b" d="m159.153,369.462l.125.11c2.051,1.77,5.275,1.782,7.95,1.856,7.514.232,15.211.21,22.786.539,24.532,1.097,49.082,2.184,73.614,3.971,4.705.147,9.588,1.584,14.246.76,4.796-.816,6.079-7.855,2.856-10.955-1.353-1.316-3.128-1.771-5.03-2.05-3.678-.455-7.589-.8-11.39-1.202-20.617-2.418-41.289-3.447-62.017-4.624-7.343-.421-14.643-.3-22.033-.453-4.212-.09-8.465-.295-12.571-.39-1.216-.05-3.86.26-3.952,1.001-.166.489.684,1.114,2.201,1.5,2.421.597,5.784.714,8.555.878,12.224.787,24.462,1.094,36.682,2.018,19.58,1.082,39.21,2.446,58.695,4.792,2.76.147,7.045,1.933,1.37,2.146-15.829-1.189-31.781-2.746-47.703-3.606-18.66-.974-37.617-1.342-56.363-1.875-2.641-.102-5.96-2.59-8.001-1.623-2.389,1.206-2.122,5.466-.02,7.207Z"/>
  <path class="b" d="m288.439,375.31l.139.143c6.84,6.169,14.167-3.779,7.277-9.353-5.589-4.374-12.386,4.488-7.415,9.21Zm4.153-6.383l.155.008c1.606.333,2.369,3.067,1.093,4.177-.688.528-1.658.227-2.322-.406-1.493-1.086-.563-3.53,1.074-3.779Z"/>
  <rect class="b" x="229.991" y="169.243" width="13.102" height="13.102" transform="translate(7.706 -9.921) rotate(2.442)"/>
  <rect class="b" x="307.084" y="172.852" width="13.102" height="13.102" transform="translate(7.93 -13.203) rotate(2.442)"/>
  <path class="b" d="m318.721,216.579l-.337,7.897c-7.977,4.637-15.735,8.014-23.275,10.132-7.54,2.118-14.978,3.02-22.316,2.707-7.403-.316-14.771-1.85-22.103-4.602-7.332-2.752-14.775-6.778-22.328-12.077l.337-7.897c7.447,4.702,14.858,8.289,22.235,10.763,7.377,2.474,14.8,3.87,22.269,4.188,7.502.32,15.033-.438,22.594-2.275,7.561-1.837,15.202-4.782,22.923-8.837Z"/>
  <path class="j" d="m71.618,185.672c.039.106.178.106.218,0,2.01-5.298,5.463-12.805,11.236-20.221,6.359-8.167,12.93-12.882,17.353-15.501.082-.048.08-.167-.002-.213-4.248-2.383-10.74-6.81-17.041-14.731-6.176-7.763-9.658-15.728-11.555-21.003-.038-.105-.174-.108-.217-.005-2.388,5.782-6.42,13.889-12.986,21.782-5.67,6.816-11.337,11.198-15.613,13.952-.078.05-.075.165.005.211,4.239,2.426,10.563,6.817,16.746,14.495,6.304,7.828,9.89,15.878,11.855,21.234Z"/>
  <path class="b" d="m71.726,189.751h-.028c-1.707-.012-3.247-1.097-3.836-2.702h0c-2.763-7.529-6.536-14.293-11.215-20.104-4.556-5.656-9.81-10.209-15.617-13.532-1.232-.698-2.031-2.025-2.074-3.456-.042-1.432.678-2.805,1.88-3.583,5.394-3.474,10.34-7.897,14.712-13.153,5-6.01,9.16-12.992,12.364-20.751.653-1.584,2.204-2.583,3.894-2.548,1.711.037,3.196,1.103,3.781,2.715,2.675,7.441,6.349,14.125,10.925,19.877,4.604,5.789,9.944,10.409,15.869,13.733,1.282.721,2.088,2.08,2.104,3.548.017,1.468-.757,2.846-2.021,3.595-6.073,3.596-11.536,8.479-16.236,14.517-4.369,5.612-7.953,12.065-10.653,19.182-.605,1.594-2.149,2.66-3.849,2.66Zm3.643-5.468s.002.007.004.01l.003.01c-.002-.007-.005-.013-.007-.02Zm-25.364-34.604c4.707,3.363,9.019,7.464,12.872,12.249,3.412,4.236,6.387,8.913,8.895,13.972,2.342-4.633,5.065-8.952,8.144-12.906,3.968-5.097,8.435-9.478,13.327-13.08-4.761-3.385-9.115-7.545-12.992-12.418-3.357-4.22-6.276-8.875-8.724-13.907-2.825,5.347-6.114,10.285-9.828,14.749-3.565,4.285-7.482,8.083-11.694,11.341Zm-5.016-3.217c.009.005.018.011.027.016-.009-.005-.018-.01-.027-.016Zm30.318-30.94v.004s0-.003,0-.004Z"/>
  <path class="j" d="m120.108,117.834c.065.168.295.168.362.001,3.338-8.406,9.072-20.316,18.661-32.081,10.56-12.958,21.473-20.438,28.819-24.593.135-.077.133-.265-.004-.338-7.054-3.781-17.836-10.805-28.302-23.372-10.257-12.317-16.04-24.953-19.19-33.323-.063-.166-.289-.171-.36-.008-3.965,9.174-10.661,22.036-21.566,34.559-9.416,10.814-18.828,17.766-25.929,22.135-.129.079-.125.261.008.334,7.041,3.849,17.542,10.815,27.811,22.997,10.469,12.42,16.424,25.191,19.689,33.69Z"/>
  <path class="b" d="m120.29,121.961c-.008,0-.016,0-.024,0-1.74-.009-3.267-1.066-3.891-2.692h0c-4.677-12.178-11.074-23.128-19.013-32.546-7.766-9.212-16.739-16.636-26.671-22.065-1.303-.708-2.142-2.076-2.182-3.564-.041-1.488.722-2.9,1.991-3.683,9.172-5.644,17.586-12.829,25.014-21.358,8.463-9.719,15.499-20.997,20.911-33.52C117.102.957,118.643-.018,120.367,0c1.716.038,3.219,1.101,3.828,2.708,4.528,12.034,10.759,22.858,18.523,32.183,7.855,9.433,16.979,16.972,27.118,22.407,1.347.722,2.196,2.119,2.214,3.646s-.797,2.944-2.128,3.698c-10.371,5.865-19.686,13.818-27.691,23.64-7.405,9.087-13.476,19.528-18.043,31.031-.639,1.611-2.167,2.649-3.898,2.649Zm-40.385-61.151c8.678,5.507,16.586,12.468,23.573,20.756,6.672,7.916,12.323,16.825,16.861,26.57,4.32-9.057,9.578-17.408,15.69-24.91,7.187-8.817,15.371-16.25,24.391-22.158-8.807-5.541-16.808-12.603-23.849-21.059-6.555-7.872-12.086-16.723-16.503-26.398-5.132,10.16-11.341,19.447-18.522,27.693-6.536,7.506-13.796,14.047-21.641,19.505Zm-5.384-3.176s.01.005.014.008c-.004-.002-.009-.005-.014-.008Z"/>
  <path class="j" d="m444.584,277.599c-.047-.123-.215-.123-.264,0-2.433,6.127-6.613,14.809-13.603,23.386-7.698,9.446-15.653,14.898-21.008,17.927-.099.056-.097.193.003.247,5.142,2.756,13.002,7.876,20.631,17.037,7.477,8.979,11.692,18.19,13.988,24.291.046.121.211.125.262.006,2.891-6.688,7.772-16.063,15.721-25.192,6.864-7.883,13.725-12.951,18.901-16.136.094-.058.091-.191-.006-.244-5.132-2.805-12.787-7.884-20.273-16.764-7.632-9.054-11.973-18.363-14.352-24.558Z"/>
  <path class="b" d="m444.465,364.579c-.031,0-.062,0-.094,0-1.695-.038-3.179-1.087-3.781-2.674-3.259-8.66-7.74-16.445-13.322-23.149-5.637-6.769-12.18-12.176-19.446-16.071-1.333-.715-2.17-2.096-2.186-3.605-.016-1.509.791-2.908,2.107-3.65,7.437-4.206,14.124-9.917,19.873-16.971,5.328-6.538,9.697-14.052,12.986-22.335.629-1.59,2.139-2.615,3.849-2.615h.025c1.718.01,3.225,1.053,3.841,2.658h0c3.366,8.764,7.968,16.642,13.676,23.414,5.574,6.612,12.012,11.939,19.133,15.833,1.289.703,2.116,2.053,2.155,3.523s-.715,2.863-1.968,3.635c-6.591,4.055-12.64,9.221-17.983,15.357-6.096,7-11.165,15.126-15.065,24.152-.656,1.525-2.142,2.5-3.8,2.5Zm-3.541-5.681s-.003.008-.005.013c.002-.004.004-.008.005-.013Zm-23.754-39.937c5.966,3.954,11.413,8.871,16.246,14.674,4.386,5.267,8.15,11.126,11.244,17.492,3.577-6.727,7.809-12.909,12.637-18.454,4.458-5.12,9.374-9.632,14.666-13.467-5.892-3.927-11.284-8.776-16.085-14.471-4.459-5.291-8.301-11.181-11.473-17.586-2.99,5.909-6.533,11.388-10.587,16.362-4.94,6.063-10.522,11.24-16.647,15.45Zm60.116,3.468s.005.002.007.004c-.002-.001-.005-.003-.007-.004Zm-65.6-.04s-.005.003-.007.004l.007-.004Zm36.354-43.318s-.002.005-.003.007c0-.002.002-.004.003-.007Zm-7.191-.043l.004.012s-.002-.004-.002-.006l-.002-.005Z"/>
  <path class="b" d="m1153.145,307.158c-.91-.264-1.857-.397-2.815-.397-.926,0-1.858.127-2.768.375,4.72-5.986,8.633-13.479,10.271-22.7,2.208-12.436-.547-25.289-7.966-37.17-3.982-6.378-9.239-12.19-15.145-16.914,6.529-4.32,13.059-8.641,19.587-12.961,3.764-1.556,6.432-5.305,6.439-9.68l.151-119.798c0-5.762-4.604-10.458-10.262-10.48l-31.704-.159h-.058c-2.405,0-4.743.876-6.581,2.428l-.006-.221c-3.8,2.515-7.6,5.029-11.399,7.543l-3.142-4.923c-1.897-2.984-5.132-4.773-8.646-4.773-5.924.018-11.838.026-17.752.026s-11.824-.009-17.718-.026c-2.539,0-4.98.955-6.853,2.636v-.15c-7.829,5.181-15.659,10.362-23.488,15.543-5.623-5.301-11.963-9.706-18.785-12.976-9.74-4.669-20.204-7.037-31.102-7.038-13.842,0-24.713,3.908-28.745,5.589-3.436,1.432-10.111,4.231-17.274,9.74-6.875,4.55-13.751,9.1-20.627,13.649-.094.057-.185.107-.28.165v-16.735c0-5.799-4.896-10.517-10.914-10.517h-38.291c-2.618,0-5.023.895-6.906,2.381-4.884,3.232-9.768,6.464-14.652,9.695-8.763-8.999-21.654-14.645-36.84-16.014-2.276-.205-4.596-.309-6.896-.309-15.695,0-30.417,4.659-40.74,12.816-7.184,4.754-14.369,9.508-21.553,14.262-1.353.808-2.655,1.663-3.9,2.568v-12.544c0-6.954-5.64-12.611-12.573-12.611h-62.735c-2.82,0-5.417.947-7.517,2.526l-23.266,16.06c-.726-.704-1.447-1.386-2.157-2.027-13.775-12.463-28.789-18.317-38.246-19.64-2.971-.416-13.667-1.494-27.297-1.494h-.16c-6.137.004-12.33.236-18.412.688-2.258.164-4.312,1.042-5.961,2.391-9.016,5.963-18.032,11.926-27.048,17.889.065-.003.13-.005.195-.008-2.485,1.959-4.084,4.981-4.084,8.333v126.49c0,4.03,2.28,7.595,5.683,9.397-4.733,1.979-8.039,6.366-8.039,11.46v121.839c0,6.941,6.125,12.588,13.655,12.588h94.696c2.369,0,4.599-.561,6.542-1.543-.005.017-.011.033-.016.05.136-.09.271-.18.407-.27.703-.384,1.365-.82,1.979-1.31,2.26-1.496,4.52-2.991,6.78-4.487,1.256,4.363,5.204,7.559,9.875,7.559h83.17c1.345,0,2.626-.272,3.805-.753-.016.049-.032.098-.047.147.197-.13.394-.261.591-.392.862-.413,1.66-.94,2.373-1.57,2.177-1.44,4.354-2.881,6.53-4.322,1.69,3.749,5.534,6.376,10.001,6.376h38.393c1.834,0,3.562-.447,5.082-1.229-.003.009-.006.018-.009.027.04-.027.08-.053.12-.08.637-.336,1.234-.734,1.787-1.183,2.163-1.431,4.325-2.862,6.487-4.292.528,1.41,1.358,2.724,2.481,3.834,1.907,1.885,4.467,2.922,7.211,2.922h44.843c1.693,0,3.311-.425,4.753-1.188-.022.069-.044.139-.067.208,5.219-3.454,10.438-6.908,15.658-10.361l3.166,5.604c1.828,3.246,5.256,5.269,8.94,5.269h45.759c1.717,0,3.345-.399,4.791-1.163-.019.058-.037.115-.055.172,3.279-2.17,6.559-4.34,9.838-6.51,1.219,4.575,5.485,7.969,10.561,7.969h38.393c2.488,0,4.776-.823,6.614-2.191-.001.022-.003.045-.005.068,4.542-3.016,9.083-6.033,13.625-9.049v.395c0,5.799,4.709,10.517,10.497,10.517h39.784c1.833,0,3.557-.474,5.058-1.304-.006.017-.011.034-.017.051.255-.169.51-.337.765-.506.002-.001.004-.003.007-.004,2.401-1.589,4.803-3.179,7.204-4.768,5.113,2.462,11.026,4.651,17.718,6.079,5.409,1.155,10.941,1.74,16.442,1.74,9.018,0,17.912-1.526,26.435-4.537.602-.213,1.171-.482,1.712-.792-.002.005-.003.011-.005.017l.174-.117c.348-.208.686-.431,1.004-.675,8.304-5.584,16.608-11.168,24.912-16.752,3.743-1.68,6.203-5.434,6.203-9.597v-34.747c0-4.734-3.065-8.802-7.627-10.123Zm-425.535-68.134c-2.449,1.951-4.017,4.914-4.017,8.229v62.203h-22.883v-74.441c1.573-.699,2.973-1.715,4.129-2.961l10.163-9.174c5.33,6.086,11.612,10.01,17.839,12.569-1.803,1.193-3.605,2.386-5.408,3.579l.176-.002Zm83.219,92.459v-41.173l13.399,20.784-13.399,20.39Zm122.503-18.026l-12.684-20.837,12.684-21.307v42.144Z"/>
  <path class="b" d="m1151.503,366.654h-617.407c-2.562,0-4.946.759-6.957,2.049.006-.019.012-.038.019-.057-8.774,5.878-17.548,11.755-26.322,17.633-3.97,2.208-6.665,6.443-6.665,11.299v68.135c0,7.127,5.798,12.925,12.925,12.925h617.407c2.648,0,5.111-.803,7.164-2.175,0,.004-.002.007-.003.011,8.636-5.785,17.271-11.57,25.906-17.355,4.076-2.177,6.858-6.471,6.858-11.405v-68.135c0-7.127-5.798-12.925-12.925-12.925Zm-22.075,99.06c0,2.72-2.205,4.925-4.925,4.925H507.096c-2.72,0-4.925-2.205-4.925-4.925v-68.135c0-2.72,2.205-4.925,4.925-4.925h14.075v55.06c0,7.127,5.798,12.925,12.925,12.925h595.332v5.075Z"/>
  <rect class="i" x="502.171" y="392.654" width="627.257" height="77.985" rx="4.925" ry="4.925"/>
  <path class="b" d="m779.845,414.82c-.755,0-1.369.628-1.375,1.407-.03,3.846-.059,7.692-.089,11.537.281,2.38-1.612,4.445-3.862,4.491-2.277.046-4.269-1.988-4.041-4.403-.03-3.875-.059-7.75-.089-11.625-.006-.779-.62-1.407-1.375-1.407h-10.625c-.763,0-1.379.64-1.375,1.427l.082,14.815c0,.033,0,.061-.003.094-.104,1.519-.246,6.605,3.326,11.139,4.959,6.294,12.9,6.225,14.549,6.164,1.64-.06,7.683-.378,12.304-5.284,5.139-5.455,4.483-12.297,4.322-13.565-.008-.061-.011-.115-.011-.177v-13.195c0-.783-.616-1.419-1.375-1.419h-10.363Z"/>
  <path class="b" d="m868.914,416.57c-3.598-1.682-6.928-1.704-8.85-1.548-.029.002-.056.003-.085.004-7.007.03-14.013.06-21.02.09-.765.003-1.38.65-1.369,1.438l.411,30.361c.011.782.633,1.408,1.392,1.399,7.176-.091,14.353-.182,21.529-.272,10.961-.22,18.769-8.552,18.77-16.508.001-6.737-5.594-12.54-10.777-14.964Zm-10.225,20.648c-2.207.028-4.414.056-6.62.084-.758.01-1.381-.616-1.392-1.399l-.118-8.743c-.011-.789.605-1.435,1.369-1.438l6.448-.028c.668-.056,1.839-.052,3.103.539,1.809.846,3.762,2.871,3.761,5.223,0,2.777-2.726,5.685-6.551,5.762Z"/>
  <rect class="b" x="925.964" y="414.95" width="13.382" height="33.392" rx="1.402" ry="1.402"/>
  <path class="b" d="m1026.375,418.996c-4.883-3.937-10.372-3.988-14.569-4.027-4.391-.041-9.901-.092-14.756,3.837-.529.428-6.719,5.591-6.395,12.844.413,9.233,11.151,16.68,21.151,16.681,10.099.001,20.846-7.592,21.151-16.681.235-7.011-5.838-12.055-6.581-12.654Zm-14.571,18.86c-3.722,0-7.718-2.772-7.872-6.208-.121-2.699,2.183-4.621,2.38-4.78,1.807-1.462,3.858-1.443,5.492-1.428,1.562.015,3.605.034,5.422,1.499.277.223,2.537,2.1,2.449,4.71-.114,3.383-4.113,6.209-7.872,6.208Z"/>
  <path class="b" d="m714.29,414.402h-38.159c-.759,0-1.375.635-1.375,1.419v10.967c0,.783.616,1.419,1.375,1.419h11.014c.759,0,1.375.635,1.375,1.419v17.847c0,.783.616,1.419,1.375,1.419h10.632c.759,0,1.375-.635,1.375-1.419v-17.847c0-.783.616-1.419,1.375-1.419h11.014c.759,0,1.375-.635,1.375-1.419v-10.967c0-.783-.616-1.419-1.375-1.419Z"/>
  <path class="b" d="m631.388,438.535c.504-3.846-3.231-6.714-3.985-7.25-1.828-1.298-6.272-3.596-10.465-4.649-.458-.115-1.676-.42-2.252-1.184-.163-.216-.654-.971-.132-1.61.328-.401.943-.658,1.57-.658h.013c.736.004,1.219.362,1.401.496.619.458.712,1.047.712,1.357,0,.36.403.654.897.654l10.515.014h0c.485,0,.885-.282.902-.636.153-3.184-1.247-5.276-2.449-6.47-2.294-2.28-6.118-3.717-10.767-4.047-5.146-.365-10.336.746-13.543,2.899-2.392,1.606-3.823,3.573-4.138,5.69-.273,1.831.309,3.706,1.682,5.421,2.167,2.706,5.878,4.144,8.859,5.299.801.31,1.564.576,2.236.81,2.272.791,3.472,1.246,3.777,2.156.026.077.238.766-.229,1.209-.572.543-1.992.555-2.909.226-.914-.327-1.521-1.047-1.581-1.874-.024-.34-.428-.599-.894-.6l-11.014-.014h0c-.467,0-.857.259-.897.599-.195,1.633-.079,4.771,2.893,7.441,3.718,3.34,9.266,3.563,11.932,3.67.335.013.821.033,1.425.033,2.127,0,5.71-.243,9.256-1.85,1.643-.745,6.645-3.011,7.184-7.132Z"/>
  <path class="b" d="m524.998,101.902c12.938,0,23.199,1.028,25.773,1.388,7.479,1.046,20.449,6.1,32.389,16.903,9.023,8.164,20.009,22.123,21.107,42.266,1.606,29.443-19.263,56.901-49.639,65.327l-.19.039c-7.633,1.115-15.424,1.731-23.158,1.831-.755.01-1.511.015-2.267.015-7.163,0-14.39-.441-21.486-1.311v-125.821c5.722-.419,11.545-.633,17.311-.637h.16m16.846,41.911c-1.787.076-3.217,1.553-3.217,3.358v37.109c0,1.76,1.361,3.209,3.085,3.35,1.497.137,3.019.206,4.526.206.233,0,.465-.001.694-.005,2.316-.032,4.653-.23,6.947-.588.159-.025.316-.061.471-.109,9.522-2.934,16.065-12.397,15.557-22.5-.629-12.556-11.565-19.608-17.002-20.434-.849-.13-3.832-.467-7.388-.467l-.523.003c-1.041,0-2.1.026-3.149.076m-16.846-44.911h-.16c-5.94.004-11.936.229-17.817.667-1.398.102-2.493,1.256-2.493,2.626v126.49c0,1.322,1.004,2.451,2.35,2.618,7.316.909,14.751,1.369,22.136,1.369.768,0,1.537-.005,2.305-.015,7.893-.102,15.855-.734,23.638-1.875l.373-.076c31.776-8.768,53.618-37.538,51.934-68.41-2.077-38.079-38.139-59.468-56.076-61.977-2.639-.369-13.092-1.417-26.189-1.417h0Z"/>
  <path class="b" d="m686.215,106.477c.867,0,1.573.723,1.573,1.611v25.571c0,.889-.706,1.611-1.573,1.611h-32.095c-1.657,0-3.005,1.348-3.005,3.005v10.108c0,1.657,1.348,3.004,3.005,3.004h24.456c.868,0,1.573.723,1.573,1.611v25.571c0,.889-.706,1.611-1.573,1.611h-24.456c-1.657,0-3.005,1.348-3.005,3.005v10.108c0,1.657,1.348,3.004,3.005,3.004h41.521c.867,0,1.573.723,1.573,1.611v25.571c0,.889-.706,1.611-1.573,1.611h-72.16c-.868,0-1.573-.723-1.573-1.611v-115.395c0-.889.706-1.611,1.573-1.611h62.735m0-3h-62.735c-2.526,0-4.573,2.065-4.573,4.611v115.395c0,2.547,2.047,4.611,4.573,4.611h72.16c2.525,0,4.573-2.064,4.573-4.611v-25.571c0-2.547-2.047-4.611-4.573-4.611h-41.521s-.005-.002-.005-.004v-10.108s.002-.005.005-.005h24.456c2.526,0,4.573-2.064,4.573-4.611v-25.571c0-2.547-2.047-4.611-4.573-4.611h-24.456s-.005-.002-.005-.004v-10.108s.002-.005.005-.005h32.095c2.526,0,4.573-2.064,4.573-4.611v-25.571c0-2.547-2.047-4.611-4.573-4.611h0Z"/>
  <path class="b" d="m764.981,101.987c1.97,0,3.958.089,5.908.265,13.966,1.259,25.392,6.672,32.175,15.242,3.479,4.395,7.527,12.093,7.156,23.878l-33.198-.058c-.058-1.806-.591-4.858-3.203-7.316-.736-.692-2.975-2.797-6.492-2.822h-.062c-3.034,0-5.915,1.547-7.519,4.038-2.595,4.031-.379,8.417.361,9.665,2.415,4.075,7.081,5.559,8.834,6.116,12.88,4.11,26.581,13.1,32.196,18.17,2.21,1.997,13.161,12.67,11.707,26.785-1.56,15.142-16.471,23.731-21.371,26.554-8.155,4.698-17.56,7.08-27.952,7.081-1.828,0-3.287-.074-4.383-.13-8.072-.413-24.867-1.271-35.86-13.823-8.574-9.792-9.037-21.336-8.501-27.539l34.818.064c.383,4.291,2.941,7.993,6.75,9.727,1.64.747,3.612,1.158,5.556,1.158,3.13,0,5.705-1.025,7.25-2.887,2.389-2.877,1.521-6.806,1.322-7.571-1.384-5.245-6.552-7.532-13.704-10.697-2.113-.935-4.507-1.995-7.004-3.224-9.147-4.504-20.531-10.109-26.972-20.336-4-6.35-5.698-13.257-4.911-19.976.914-7.795,5.11-15.084,12.134-21.079,8.281-7.066,21.352-11.285,34.965-11.285h0m-50.178,85.808h.005-.005m50.178-88.808c-14.253,0-27.992,4.39-36.912,12.002-7.609,6.494-12.163,14.451-13.167,23.011-.869,7.407.982,14.988,5.352,21.924,6.894,10.945,18.7,16.758,28.187,21.429,2.549,1.255,4.975,2.329,7.114,3.275,7.229,3.199,11.045,5.04,12.017,8.72.082.312.758,3.099-.729,4.889-1.037,1.25-2.95,1.804-4.942,1.804-1.506,0-3.057-.316-4.312-.888-2.909-1.324-4.841-4.233-5.029-7.578-.077-1.374-1.361-2.423-2.843-2.426l-35.043-.057h0c-1.486,0-2.726,1.047-2.855,2.421-.62,6.603-.251,19.296,9.205,30.094,11.829,13.507,29.481,14.409,37.964,14.843,1.066.054,2.613.134,4.535.134,6.768,0,18.167-.982,29.45-7.481,5.229-3.012,21.141-12.179,22.858-28.846,1.603-15.555-10.281-27.152-12.68-29.319-5.815-5.251-19.956-14.545-33.295-18.802-1.458-.464-5.334-1.697-7.166-4.788-.519-.875-2.082-3.928-.419-6.511,1.043-1.62,3-2.662,4.996-2.662h.041c2.34.017,3.879,1.462,4.458,2.007,1.97,1.854,2.264,4.233,2.264,5.486,0,1.457,1.281,2.643,2.855,2.646l33.454.057h0c1.543,0,2.815-1.142,2.87-2.573.488-12.876-3.967-21.337-7.791-26.168-7.298-9.222-19.464-15.034-34.257-16.368-2.061-.186-4.125-.277-6.178-.277h0Z"/>
  <path class="b" d="m868.479,106.233v119.105h-38.118v-119.105h38.118m.086-3h-38.291c-1.609,0-2.914,1.127-2.914,2.517v120.072c0,1.39,1.304,2.517,2.914,2.517h38.291c1.609,0,2.914-1.126,2.914-2.517v-120.072c0-1.39-1.305-2.517-2.914-2.517h0Z"/>
  <path class="b" d="m1092.58,106.277l30.32.152-.15,118.733h-28.364l-31.922-51.077c-.014-.022-.028-.044-.042-.065-.555-.84-1.499-1.347-2.505-1.347-1.657,0-3.004,1.348-3.004,3.004v49.621h-29.609v-118.97c5.671.016,11.36.024,17.048.024,5.782,0,11.564-.008,17.324-.025l25.391,39.782c.013.02.025.039.039.059.557.83,1.495,1.329,2.494,1.329.796,0,1.562-.318,2.124-.881.563-.563.881-1.329.88-2.125l-.021-38.215m-.685-3.003h-.018c-.583,0-1.186.257-1.618.719-.438.467-.679,1.089-.679,1.752l.021,38.749s-.002.004-.004.004c0,0-.002,0-.003-.002l-25.588-40.091c-.429-.675-1.14-1.078-1.902-1.078h-.006c-5.901.018-11.824.026-17.746.026s-11.84-.009-17.741-.026h-.004c-.614,0-1.192.256-1.627.721-.436.467-.676,1.087-.676,1.749v120.028c0,1.367,1.034,2.474,2.308,2.474h30.993c1.275,0,2.308-1.107,2.308-2.474v-50.146s.002-.004.004-.004c0,0,.002,0,.003.002l32.121,51.395c.429.684,1.144,1.092,1.913,1.092h29.492c1.268,0,2.302-1.106,2.304-2.466l.151-119.793c0-1.357-1.03-2.465-2.293-2.47l-31.712-.159h0Z"/>
  <path class="b" d="m662.71,247.056v88.396c0,1.657,1.347,3.004,3.004,3.004h44.845v34.513h-81.767v-125.913h33.917m.702-3h-35.322c-1.269,0-2.297,1.128-2.297,2.521v126.871c0,1.393,1.029,2.522,2.298,2.522h83.17c1.269,0,2.298-1.129,2.298-2.521v-35.471c0-1.392-1.029-2.521-2.298-2.521h-45.547s-.004-.002-.004-.004v-88.875c0-1.392-1.029-2.521-2.298-2.521h0Z"/>
  <path class="b" d="m806.233,247.546c11.813,0,28.789.335,32.138.404l16.63,22.279c.086.116.181.225.283.327.562.563,1.329.88,2.125.88,1.007,0,1.95-.507,2.506-1.347.021-.032.042-.064.062-.097l13.384-22.029h44.786l-36.41,61.162c-.572.956-.566,2.157.017,3.11l36.373,59.752h-44.31l-13.279-23.506c-.038-.067-.079-.134-.122-.198-.557-.829-1.494-1.329-2.493-1.329s-1.936.5-2.493,1.329c-.021.031-.042.063-.062.095l-14.895,24.077h-43.406l39.208-59.663c.657-.994.663-2.286.019-3.285l-39.847-61.808c1.448-.08,4.278-.154,9.787-.154m67.313.111h.005-.005m-67.313-3.111c-5.127,0-9.298.063-11.007.237-.82.084-1.544.64-1.889,1.452-.344.81-.265,1.767.206,2.498l40.229,62.4s0,.003,0,.005l-39.651,60.339c-.671,1.02-.571,2.446.361,3.369.427.422,1.008.61,1.585.61h44.843c.773,0,1.492-.416,1.921-1.112l15.086-24.387s.002-.002.003-.002c.001,0,.002,0,.003.002l13.46,23.827c.418.742,1.174,1.204,1.975,1.204h45.759c.47,0,.948-.115,1.33-.412,1.11-.863,1.307-2.396.638-3.493l-36.776-60.414s0-.003,0-.005l36.801-61.819c.619-1.042.467-2.461-.486-3.328-.426-.387-.987-.554-1.542-.554h-46.167c-.777,0-1.498.42-1.932,1.129l-13.574,22.342s-.002.002-.003.002-.002,0-.003-.001l-16.827-22.543c-.431-.58-1.069-.919-1.749-.933-2.715-.057-20.374-.413-32.596-.413h0Z"/>
  <path class="b" d="m1038.697,246.336c4.362,0,8.775.054,13.122.162,20.874.517,32.372.801,39.951,4.57,8.538,4.246,16.472,11.544,21.767,20.024,4.152,6.649,8.644,17.15,6.466,29.42-3.126,17.603-17.149,27.515-25.23,31.857-.024.013-.048.026-.072.04-.985.564-1.568,1.641-1.505,2.773.063,1.133.764,2.138,1.805,2.59.047.021.095.04.143.058,2.246.84,4.577,1.438,6.93,1.779,1.577.228,3.18.343,4.767.343,6.658,0,12.227-2.016,15.933-3.857v33.596c-7.241,2.516-14.787,3.791-22.435,3.791-4.73,0-9.49-.504-14.146-1.498-13.112-2.799-22.815-8.981-28.646-13.674h0c-.531-.427-1.197-.664-1.884-.664-1.657,0-3.004,1.348-3.004,3.004v11.544h-38.778v-125.277c8.18-.386,16.526-.581,24.818-.581m14.378,35.669c-1.428.231-2.521,1.473-2.521,2.965v27.447c0,1.501,1.106,2.749,2.546,2.97,1.323.223,2.668.336,4,.336,3.615,0,7.005-.817,10.077-2.429,2.59-1.36,11.031-6.458,10.883-14.962-.146-8.349-8.56-13.185-11.135-14.468-2.967-1.479-6.219-2.23-9.666-2.23-1.394,0-2.801.125-4.185.371m70.382,53.741h.005-.005m-84.76-92.41c-8.521,0-17.039.203-25.453.608-1.326.065-2.365,1.167-2.365,2.51v126.224c0,1.39,1.118,2.517,2.497,2.517h39.784c1.379,0,2.497-1.127,2.497-2.517v-12.027s.002-.004.004-.004c0,0,.002,0,.003,0,6.572,5.291,16.575,11.427,29.9,14.271,5.21,1.112,10.162,1.564,14.772,1.564,9.713,0,17.905-2.008,23.771-4.08,1.001-.354,1.665-1.305,1.665-2.374v-34.747c0-1.122-.715-2.109-1.852-2.438-.194-.056-.392-.082-.59-.082-.443,0-.888.129-1.288.338-3.584,1.874-8.873,3.853-15.203,3.853-1.398,0-2.846-.097-4.339-.312-2.146-.311-4.257-.853-6.307-1.62-.003-.001-.004-.006,0-.008,7.813-4.198,23.359-14.802,26.764-33.976,4.006-22.566-12.389-43.972-29.851-52.655-8.176-4.066-19.912-4.356-41.216-4.883-4.388-.108-8.791-.163-13.192-.163h0Zm18.404,69.387c-1.342,0-2.546-.131-3.542-.301-.002,0-.004-.002-.004-.004v-27.447s.001-.004.004-.004c1.031-.186,2.292-.332,3.702-.332,2.465,0,5.385.447,8.327,1.915,2.193,1.093,9.357,5.175,9.474,11.836.118,6.79-7.072,11.095-9.278,12.253-3.061,1.606-6.122,2.085-8.683,2.085h0Z"/>
  <path class="i" d="m507.826,374.469c-2.252,0-4.155-1.414-4.155-3.088v-121.839c0-1.674,1.903-3.087,4.155-3.087h82.328c2.252,0,4.155,1.414,4.155,3.088v27c0,1.674-1.903,3.087-4.155,3.087h-42.466c-.828,0-1.506.676-1.506,1.505v11.235c0,.828.677,1.504,1.506,1.504h32.44c2.252,0,4.155,1.414,4.155,3.088v27c0,1.674-1.903,3.088-4.155,3.088h-32.44c-.828,0-1.506.676-1.506,1.504v11.235c0,.828.677,1.504,1.506,1.504h54.834c2.252,0,4.155,1.414,4.155,3.088v27c0,1.674-1.903,3.088-4.155,3.088h-94.696Z"/>
  <path class="b" d="m772.829,247.621v124.834h-38.235v-124.834h38.235m.079-3h-38.393c-1.613,0-2.921,1.178-2.921,2.631v125.571c0,1.453,1.308,2.632,2.921,2.632h38.393c1.613,0,2.921-1.179,2.921-2.632v-125.571c0-1.453-1.308-2.631-2.921-2.631h0Z"/>
  <path class="b" d="m982.567,247.621v124.834h-38.235v-124.834h38.235m.079-3h-38.393c-1.613,0-2.921,1.178-2.921,2.631v125.571c0,1.453,1.308,2.632,2.921,2.632h38.393c1.613,0,2.921-1.179,2.921-2.632v-125.571c0-1.453-1.308-2.631-2.921-2.631h0Z"/>
  <path class="b" d="m946.404,104.342c9.238,0,18.103,2.004,26.347,5.957,9.235,4.428,17.479,11.298,23.85,19.876l-17.011,23.087c-2.523-2.711-5.362-5.022-8.447-6.875-5.108-3.068-13.579-6.347-22.034-6.347-6.689,0-12.291,2.125-16.199,6.144-4.632,4.763-6.798,12.463-5.518,19.618.075.421,1.946,10.37,10.32,15.308,2.677,1.578,5.164,2.133,6.654,2.467,1.947.434,3.944.654,5.935.654,1.847,0,3.724-.189,5.563-.56,1.395-.273,2.41-1.492,2.427-2.913l.139-11.578,47.236-.17v57.981h-27.525l.141-4.624c0-.03.001-.061.001-.091,0-1.657-1.348-3.005-3.004-3.005-.487,0-.963.119-1.389.34h0c-5.459,2.845-16.648,7.619-30.246,7.619-8.392,0-16.439-1.851-23.917-5.502-31.468-15.363-33.861-53.271-33.948-54.877-.702-13.012,2.012-24.673,8.067-34.661,9.263-15.279,22.907-20.965,28.044-23.106,3.42-1.426,12.654-4.742,24.506-4.742h.005m12.031,64.513h.005-.005m47.816.148h.005-.005m-59.853-67.662c-12.284,0-21.867,3.392-25.66,4.973-5.384,2.244-19.686,8.204-29.456,24.32-6.374,10.513-9.233,22.752-8.498,36.377.09,1.678,2.593,41.284,35.627,57.412,8.755,4.274,17.377,5.806,25.234,5.806,14.372,0,26.19-5.122,31.633-7.959,0,0,.001,0,.002,0,.002,0,.004.002.004.005l-.235,7.715h33.618v-61.247c0-.579-.143-1.163-.479-1.625-.484-.667-1.21-1.112-2.002-1.112-.035,0-.069,0-.104.002l-48.077.173c-1.396.005-2.554,1.192-2.571,2.637l-.143,11.903s-.001.004-.004.005c-1.668.336-3.333.504-4.986.504-1.777,0-3.542-.194-5.282-.583-1.398-.312-3.513-.784-5.784-2.123-7.209-4.25-8.875-13.163-8.891-13.253-1.115-6.232.736-12.904,4.716-16.997,3.703-3.808,8.77-5.235,14.048-5.235,7.508,0,15.444,2.888,20.489,5.919,2.989,1.795,5.731,4.06,8.15,6.732.485.538,1.152.847,1.862.847.049,0,.099-.001.148-.004.758-.04,1.458-.421,1.918-1.046l17.457-23.693c.697-.946.718-2.267.021-3.212-6.681-9.06-15.364-16.318-25.106-20.989-9.808-4.702-19.343-6.251-27.644-6.251h-.005Z"/>
  <path class="i" d="m529.014,231.171c-7.319,0-14.705-.457-21.951-1.357-.59-.073-1.035-.559-1.035-1.129v-126.49c0-.589.484-1.086,1.102-1.13,5.853-.436,11.811-.659,17.71-.663h.159c13.023,0,23.38,1.039,25.981,1.403,17.524,2.451,52.756,23.355,54.786,60.573,1.645,30.156-19.712,58.27-50.786,66.869l-.323.066c-7.642,1.118-15.528,1.743-23.357,1.844-.761.01-1.524.015-2.285.015Zm15.813-47.353c1.297.119,2.618.18,3.925.18l.602-.004c1.999-.028,4.017-.199,5.997-.508.071-.011.141-.027.21-.049,7.867-2.424,13.272-10.249,12.853-18.605-.52-10.37-9.476-16.183-13.929-16.86-.727-.111-3.291-.4-6.377-.4l-.48.003c-.902,0-1.825.023-2.746.067-.8.038-1.433.703-1.433,1.503v33.174c0,.786.609,1.435,1.38,1.499Z"/>
  <path class="i" d="m623.479,226.594c-1.695,0-3.073-1.396-3.073-3.111v-115.395c0-1.716,1.379-3.111,3.073-3.111h62.735c1.694,0,3.073,1.396,3.073,3.111v25.571c0,1.716-1.379,3.111-3.073,3.111h-32.095c-.828,0-1.505.676-1.505,1.505v10.108c0,.828.677,1.504,1.505,1.504h24.456c1.695,0,3.073,1.396,3.073,3.111v25.571c0,1.716-1.379,3.111-3.073,3.111h-24.456c-.828,0-1.505.676-1.505,1.505v10.108c0,.828.677,1.504,1.505,1.504h41.521c1.694,0,3.073,1.396,3.073,3.111v25.571c0,1.716-1.378,3.111-3.073,3.111h-72.16Z"/>
  <path class="i" d="m763.52,231.085c-1.865,0-3.346-.075-4.427-.13-8.309-.425-25.533-1.305-36.944-14.335-9.084-10.373-9.437-22.601-8.84-28.966.056-.595.654-1.061,1.362-1.061l35.042.057c.7.001,1.317.464,1.348,1.01.22,3.906,2.483,7.301,5.905,8.859,1.448.66,3.2,1.023,4.934,1.023,2.676,0,4.841-.833,6.096-2.346,1.921-2.313,1.192-5.593,1.026-6.226-1.148-4.349-5.199-6.321-12.861-9.712-2.126-.941-4.536-2.007-7.059-3.249-9.318-4.588-20.913-10.297-27.58-20.883-4.186-6.643-5.96-13.888-5.132-20.95.959-8.177,5.333-15.8,12.65-22.045,8.544-7.291,21.978-11.643,35.936-11.643h.002c2.014,0,4.048.091,6.043.271,14.379,1.296,26.175,6.909,33.216,15.805,3.667,4.632,7.939,12.76,7.468,25.18-.023.623-.638,1.13-1.371,1.13l-33.452-.057c-.736-.001-1.358-.526-1.358-1.146,0-1.495-.355-4.338-2.736-6.579-.63-.592-2.546-2.394-5.476-2.415-2.543,0-4.999,1.315-6.309,3.35-2.129,3.307-.24,7.027.39,8.088,2.123,3.582,6.394,4.941,8.001,5.452,13.091,4.178,27.029,13.325,32.744,18.486,2.304,2.081,13.722,13.216,12.193,28.052-1.639,15.904-17.05,24.782-22.115,27.7-8.385,4.83-18.043,7.28-28.701,7.281h0Z"/>
  <path class="i" d="m830.275,226.839c-.766,0-1.414-.466-1.414-1.017v-120.072c0-.551.647-1.017,1.414-1.017h38.291c.766,0,1.414.466,1.414,1.017v120.072c0,.551-.647,1.017-1.414,1.017h-38.291Z"/>
  <path class="i" d="m1026.61,226.799c-.446,0-.808-.437-.808-.974v-120.028c0-.279.097-.537.272-.725.104-.112.281-.245.531-.245,5.902.017,11.823.026,17.745.026s11.848-.009,17.75-.026c.248,0,.486.143.638.382l25.59,40.094c.276.432.756.695,1.268.695.828,0,1.504-.676,1.504-1.504l-.021-38.749c0-.28.097-.537.272-.724.141-.15.346-.246.525-.246l31.723.159c.435.002.801.446.801.97l-.151,119.792c0,.524-.369.968-.804.968h-29.492c-.253,0-.487-.142-.642-.389l-32.12-51.392c-.274-.439-.758-.707-1.275-.707-.828,0-1.504.676-1.504,1.504v50.146c0,.537-.363.974-.808.974h-30.993Z"/>
  <path class="i" d="m628.091,374.469c-.433,0-.798-.468-.798-1.022v-126.871c0-.553.365-1.021.797-1.021h35.322c.432,0,.798.467.798,1.021v88.875c0,.828.676,1.504,1.504,1.504h45.547c.432,0,.798.467.798,1.021v35.471c0,.554-.366,1.021-.798,1.021h-83.17Z"/>
  <path class="i" d="m796.067,373.955c-.106,0-.369-.017-.531-.177-.392-.387-.462-1.023-.163-1.478l39.652-60.339c.329-.5.328-1.153,0-1.653l-40.221-62.389c-.203-.314-.236-.745-.086-1.099.131-.309.384-.518.661-.547,1.494-.152,5.146-.229,10.854-.229,12.421,0,30.54.371,32.565.413.215.004.425.124.577.328l16.829,22.545c.043.058.091.112.142.163.281.281.666.441,1.064.441.5,0,.97-.251,1.249-.666l13.611-22.399c.158-.258.395-.408.65-.408h46.167c.224,0,.418.06.533.164.45.409.442,1.053.206,1.451l-36.8,61.818c-.297.498-.28,1.127.043,1.608l36.74,60.358c.267.438.236,1.13-.278,1.529-.077.06-.23.096-.409.096h-45.759c-.255,0-.517-.173-.668-.44l-13.461-23.829c-.017-.031-.036-.061-.055-.09-.278-.42-.751-.674-1.254-.674s-.976.254-1.254.674l-15.111,24.426c-.157.255-.393.401-.646.401h-44.843Z"/>
  <path class="i" d="m1100.337,374.983c-4.836,0-9.7-.515-14.459-1.531-13.401-2.86-23.316-9.177-29.273-13.973h0c-.266-.214-.6-.333-.944-.333-.828,0-1.504.676-1.504,1.504v12.027c0,.561-.447,1.017-.997,1.017h-39.784c-.55,0-.997-.456-.997-1.017v-126.224c0-.541.412-.986.939-1.012,8.359-.402,16.898-.606,25.379-.606,4.374,0,8.8.055,13.155.162,21.091.522,32.708.809,40.585,4.726,16.974,8.44,32.921,29.201,29.042,51.05-3.236,18.225-17.677,28.446-25.997,32.917-.514.276-.824.83-.79,1.413.033.568.388,1.073.912,1.296,2.209.828,4.436,1.4,6.681,1.725,1.507.217,3.038.328,4.554.328,6.778,0,12.386-2.188,15.897-4.024.207-.108.417-.168.593-.168.062,0,.121.008.173.023.475.137.77.52.77.998v34.747c0,.434-.267.819-.665.96-7.504,2.65-15.333,3.994-23.271,3.994Zm-47.011-61.079c1.249.212,2.519.319,3.775.319,3.37,0,6.525-.759,9.379-2.257,2.399-1.259,10.214-5.962,10.081-13.608-.131-7.505-7.921-11.964-10.305-13.152-2.757-1.375-5.784-2.072-8.996-2.072-1.314,0-2.642.119-3.948.352-.712.118-1.258.74-1.258,1.484v27.447c0,.749.552,1.374,1.271,1.486Z"/>
  <path class="b" d="m590.155,247.954c1.495,0,2.655.854,2.655,1.588v27c0,.734-1.16,1.587-2.655,1.587h-42.466c-1.657,0-3.006,1.348-3.006,3.005v11.235c0,1.657,1.349,3.004,3.006,3.004h32.44c1.495,0,2.655.854,2.655,1.588v27c0,.734-1.16,1.588-2.655,1.588h-32.44c-1.657,0-3.006,1.348-3.006,3.004v11.235c0,1.657,1.349,3.004,3.006,3.004h54.834c1.495,0,2.655.854,2.655,1.588v27c0,.734-1.16,1.588-2.655,1.588h-94.696c-1.495,0-2.655-.854-2.655-1.588v-121.839c0-.734,1.16-1.587,2.655-1.587h82.328m0-3h-82.328c-3.123,0-5.655,2.054-5.655,4.587v121.839c0,2.534,2.532,4.588,5.655,4.588h94.696c3.123,0,5.655-2.054,5.655-4.588v-27c0-2.534-2.532-4.588-5.655-4.588h-54.834s-.006-.002-.006-.004v-11.235s.002-.004.006-.004h32.44c3.123,0,5.655-2.054,5.655-4.588v-27c0-2.534-2.532-4.588-5.655-4.588h-32.44s-.006-.002-.006-.004v-11.235s.002-.005.006-.005h42.466c3.123,0,5.655-2.054,5.655-4.587v-27c0-2.534-2.532-4.588-5.655-4.588h0Z"/>
  <path class="i" d="m734.515,373.955c-.771,0-1.421-.518-1.421-1.132v-125.571c0-.613.651-1.131,1.421-1.131h38.393c.771,0,1.421.518,1.421,1.131v125.571c0,.614-.651,1.132-1.421,1.132h-38.393Z"/>
  <path class="i" d="m944.253,373.955c-.771,0-1.421-.518-1.421-1.132v-125.571c0-.613.651-1.131,1.421-1.131h38.393c.771,0,1.421.518,1.421,1.131v125.571c0,.614-.651,1.132-1.421,1.132h-38.393Z"/>
  <path class="i" d="m943.646,228.73c-8.622,0-16.891-1.902-24.576-5.654-32.252-15.746-34.699-54.502-34.787-56.144-.719-13.319,2.068-25.269,8.282-35.519,9.516-15.698,23.49-21.521,28.75-23.713,3.504-1.461,12.96-4.858,25.083-4.858,9.47,0,18.552,2.054,27.001,6.104,9.524,4.566,18.012,11.664,24.548,20.526.3.406.291,1.009-.021,1.432l-17.457,23.693c-.193.263-.48.422-.789.438h-.01c-.344,0-.606-.125-.81-.35-2.52-2.783-5.376-5.142-8.491-7.013-4.936-2.965-13.113-6.133-21.261-6.133-6.364,0-11.452,1.914-15.123,5.69-4.306,4.428-6.314,11.614-5.117,18.306.017.097,1.819,9.69,9.606,14.281,2.473,1.458,4.725,1.961,6.215,2.294,1.844.411,3.731.62,5.613.62,1.748,0,3.525-.18,5.282-.533.7-.141,1.208-.761,1.208-1.475l.143-11.885c.008-.624.5-1.153,1.076-1.155,0,0,48.082-.173,48.084-.173.365,0,.656.184.879.491.123.169.193.44.193.745v59.747h-30.571l.188-6.169c.012-.406-.142-.802-.425-1.093s-.673-.458-1.079-.458c-.244,0-.483.06-.696.171h0c-5.581,2.908-17.022,7.789-30.939,7.789Z"/>
</svg>