<?xml version="1.0" encoding="UTF-8"?>
<svg id="a" data-name="Layer 1" xmlns="http://www.w3.org/2000/svg" width="7.46in" height="6.386in" viewBox="0 0 537.13 459.782">
  <defs>
    <style>
      .b, .c, .d, .e, .f, .g {
        stroke-width: 0px;
      }

      .c {
        fill: #8993b8;
      }

      .d {
        fill: #e23f24;
      }

      .e {
        fill: #36c;
      }

      .f {
        fill: #339;
      }

      .g {
        fill: #8ea1e4;
      }
    </style>
  </defs>
  <path class="d" d="m409.473,382.887c2.532-.141,3.973-3.15,5.445-4.938,2.334-3.541,6.675-10.329,3.527-14.366-2.674-2.195-5.726,2.441-8.534,1.668-2.125-.513-4.477-3.705-7.101-2.737l-.142.056c-4.268,2.445-1.201,8.976.609,12.372,1.469,2.471,3.688,7.41,6.196,7.945Z"/>
  <path class="d" d="m291.519,326.827c.664.633,1.634.934,2.322.406,1.276-1.11.512-3.844-1.093-4.177l-.155-.008c-1.637.25-2.566,2.693-1.074,3.779Z"/>
  <path class="g" d="m103.831,365.987c.802-1.204,1.837-3.012,1.601-4.173-.164-1.474-2.158-2.307-3.639-2.729-10.132-2.735-20.327-5.573-30.639-7.195-4.335-.428-6.387,3.176-8.573,6.669-1.066,1.647-2.048,3.414-3.171,5.034-1.077,1.55-2.313,2.708-3.146,2.753-2.334-.449.338-5.357,1.01-6.673,1.304-3.001,5.223-6.851,3.844-8.856-.883-1.003-2.781-1.274-4.158-1.505-5.58-.685-11.257-1.787-16.906-1.727-2.873.167-4.943,2.172-6.444,4.562-8.142,12.47-17.972,24.103-23.381,38.052-11.108,23.43,10.613,38.675,32.663,36.317l.189-.024c12.845-1.612,22.546-11.459,30.781-20.682,10.959-12.463,20.89-25.932,29.969-39.823Zm-41.774,10.013c-6.759-1.528-13.539-2.978-20.333-4.072-4.367-.873-9.159-1.104-13.271-2.797-1.273-.636-1.963-1.502-1.723-2.143.421-1.145,3.001-1.128,4.343-.942,13.975,1.9,27.878,4.759,41.637,7.978,4.72,1.085,9.48,2.033,14.237,2.892,1.989.177,6.338,2.383,3.086,4.007l-.133.049c-1.373.487-3.425.161-4.997-.112-7.684-1.321-15.251-3.14-22.846-4.861Z"/>
  <path class="g" d="m174.873,228.359c3.218,3.007,8.052,3.834,12.358,4.417,5.435.671,11.014,1.37,16.521,2.073,17.015,2.159,34.041,4.286,51.155,5.38,34.939,1.647,69.799,4.852,104.747,6.441,8.03.245,16.085.334,24.102.132,4.287-.132,9.219-.613,12.908-2.446,6.147-3.058,5.415-11.71,5.865-17.727.277-34.103-1.044-68.343.305-102.457.319-10.45.746-20.988-.751-31.37-.798-6.125-3.26-12.132-10.124-12.794-14.145-2.157-28.59-2.597-42.817-3.883-48.737-3.103-97.598-4.745-146.434-5.79-8.583.363-21.524-1.808-25.584,7.978-5.191,19.403-4.647,39.927-5.886,59.831l-.01.187c-1.351,24.787-2.133,49.714-1.22,74.532.222,5.344.833,11.658,4.866,15.492Z"/>
  <path class="c" d="m440.89,38.125c.002-.016.005-.031.007-.045-.059-.008-.118-.015-.178-.025.047.068.097.134.143.203.008-.038.016-.076.023-.114l.005-.02Z"/>
  <path class="f" d="m109.904,372.424c-.208-2.879-2.331.806-3.058,1.763-11.203,16.516-22.52,32.758-36.78,46.898-.638.661-2.298,2.08-2.145,2.63.117.211.746.103,1.716-.23,14.288-5.446,27.326-15.163,34.946-28.519,4.119-6.616,5.309-14.806,5.329-22.408l-.007-.134Z"/>
  <path class="f" d="m155.758,237.405c.418,1.575-.234,10.356,2.262,9.128,1.249-.571,3.359-4.397,5.456-5.731.959-.759,2.462-.901,2.178.788-.256,2.424-2.656,4.907-3.378,7.097-1.09,3.962,6.485,3.581,9.508,4.315,30.339,2.815,60.63,6.298,90.975,9.111,34.29,2.196,68.504,6.928,102.899,6.729,11.411.366,22.907,1.582,34.31.759,2.833-.249,6.22-.217,7.562-1.52,2.243-2.492-.878-6.469-.813-9.839-.118-1.177.392-3.401,1.905-2.109,1.086.818,2.053,3.265,2.681,4.117,1.091.988,1.061-4.222,1.087-6.064,1.282-53.824.349-107.704.343-161.513-.182-4.85-.573-9.711-.939-14.569-.181-1.272-.136-2.828-1.011-3.753-1.156-.745-3.541,2.12-4.38,1.102-1.218-2.106,1.742-5.369-.512-7.154-1.125-.847-3.537-.967-5.706-1.153-7.648-.49-15.375-1.158-23.061-1.318-48.117-.413-96.093-4.745-144.234-5.388-20.742.068-41.487-2.523-62.164-.724-5.671.461-.035,2.796.496,4.721.609,1.447-1.204,1.627-2.262,1.375-2.126-.286-4.795-2.535-6.796-1.179l-.089.072c-.882.73-1.297,2.399-1.571,4.294-.831,5.752-1.372,11.562-1.75,17.368-.861,13.288-.841,26.642-1.3,39.936-1.642,37.032-2.874,74.088-1.699,111.103Zm251.119-51.992c-.001.031.001.063,0,.091,0-.016-.003-.032-.002-.048l.002-.043Zm0-.107c0,.023-.002.047-.002.07,0-.007,0-.013,0-.019l.002-.051Zm.072-22.663l-.008.193s0-.009,0-.013c.003-.06.006-.12.008-.18Zm-233.449-91.087c-.007.03-.011.06-.019.09-.003.015-.007.029-.01.043.01-.043.02-.09.029-.133Zm.033-.121c-.01.035-.018.072-.026.108-.002.008-.005.017-.007.025.01-.047.024-.09.033-.133Zm-2.127,11.839c1.189-9.437,1.799-16.237,13.105-16.62,36.555-1.152,73.161,1.533,109.728,2.413,26.588,1.522,53.085,2.565,79.594,4.871,7.79.377,15.513,1.155,23.261,1.865,8.467.186,8.561,8.881,9.261,15.436,1.726,19.714.354,39.63.565,59.31-.251,25.021.111,49.541-.324,74.653-.362,7.142-.129,15.177-4.121,21.371-2.208,2.912-6.067,3.415-9.758,3.778-8.849.857-17.823.562-26.83.525-39.909-1.471-79.747-5.105-119.64-7.198-23.224-2.093-46.323-5.391-69.46-7.943-7.71-.454-9.528-4.908-10.28-11.819-.89-7.457-.421-14.485-.662-20.316-.267-7.169-.352-14.585-.25-21.726l.002-.187c1.036-32.771,1.518-65.895,5.808-98.411Z"/>
  <path class="f" d="m526.902,341.986c-11.868,4.926-28.498,36.692-38.638,47.59-1.256,1.35-6.872,8.489-8.371,5.235-.35-1.688,1.332-4.105,2.34-5.748,4.244-6.303,9.135-12.308,13.54-18.548,9.096-12.597,19.332-24.252,28.66-36.657,1.52-2.061,4.737-5.87,4.158-8.228-.837-.653-2.512,1.652-3.298,2.503-1.92,2.421-3.854,4.892-5.838,7.311-9.661,11.256-18.666,23.013-27.878,34.652-3.026,3.443-5.838,7.823-9.734,10.263-4.671,2.018-2.207-4.064-.689-6.025,7.628-11.698,16.711-22.229,25.315-33.239,6.12-7.982,12.155-16.05,18.619-23.756.887-1.099,1.792-2.456,2.34-3.634,1.19-2.393.536-3.487-1.531-1.401-10.731,13.066-21.469,26.158-31.825,39.508-2.545,2.699-14.062,20.271-17.378,17.668-1.307-2.781,3.669-7.598,5.146-10.171,5.148-7.847,10.86-15.298,16.641-22.711,8.264-11.15,17.093-21.592,25.768-32.451,1.404-1.778,2.689-3.779,3.271-5.915.546-1.882.606-3.907.531-5.997-.261-7.338-.547-14.728-.935-22.157-4.012-62.514-4.351-125.181-8.065-187.706-1.178-15.271-1.308-31.419-3.793-46.715-.898-4.32-1.526-7.967-3.345-10.839-1.738-2.477-5.111-1.82-7.709-1.186-5.451,1.3-10.927,2.701-16.389,3.851-1.825.243-4.977.948-5.876-1.072-1.233-3.973,17.865-6.256,14.67-8.039-10.768-2.18-22.314-3.453-33.27-4.594-27.259-2.202-54.595-4.732-81.962-5.495,0,0-28.348-1.041-62.607-.208-3.384.082-61.313,5.692-122.756,8.433-.443.08.687.125,2.68.15.518.007,1.083.013,1.658.018,76.531,1.518,153.329,2.572,229.406,11.641,5.638.615,11.012,1.717,16.645,1.34,4.938-.323,9.771-.808,14.561-1.51,1.518-.236,3.243-.351,4.7-.057,1.334.279,2.387,1.214,1.712,2.478-.832,1.446-2.65,2.042-4.178,2.626-2.827.867-5.758,1.615-8.617,2.499-3.245.981-6.108,1.722-7.105,4.673-.727,2.189-.273,4.906-.284,7.308.06,2.867.05,5.719.096,8.593,1.563,105.231,2.125,210.352,3.308,315.659.075,7.16.117,14.318.222,21.455.003.265.005.543.007.818.849-.519,2.629-.558,4.237-.469,4.609.22,5.635,7.054,6.058,10.736,1.143,11.011,1.545,22.196,1.362,33.296.041,1.513.207,3.577,1.934,1.928,20.142-26.478,40.944-52.773,58.465-81.104,2.491-4.029,9.07-14.953,6.904-16.834-.2-.174-.856-.602-2.88.238Zm-44.922-44.212c1.883-.283,1.568,4.662.158,4.958h-.099c-1.665-.64-1.071-4.538-.059-4.958Zm-1.941-15.037c1.883-.283,1.568,4.661.158,4.957h-.099c-1.665-.64-1.071-4.538-.059-4.957Zm-5.489,23.992c-1.884.283-1.567-4.666-.158-4.962h.099c1.666.641,1.071,4.544.059,4.962Zm-.202-7.466c-1.883.283-1.568-4.661-.158-4.958h.099c1.665.64,1.071,4.538.059,4.958Zm.283-8.45c-1.883.283-1.568-4.661-.158-4.957h.099c1.665.64,1.071,4.538.059,4.957Zm.043-16.257c1.883-.283,1.568,4.662.158,4.958h-.099c-1.665-.64-1.071-4.538-.059-4.958Zm-4.662,39.604c1.883-.284,1.568,4.661.158,4.957h-.099c-1.665-.64-1.071-4.538-.059-4.957Zm-.49-15.295h.099c1.665.64,1.071,4.538.059,4.957-1.883.283-1.568-4.662-.158-4.957Zm1.707,12.241c-1.883.283-1.568-4.661-.158-4.957h.099c1.665.64,1.071,4.538.059,4.957Zm-.2-19.869c1.883-.283,1.568,4.662.158,4.957h-.099c-1.665-.64-1.071-4.538-.059-4.957Zm-1.467-9.044c1.883-.283,1.568,4.661.158,4.958h-.099c-1.665-.64-1.071-4.538-.059-4.958Zm-1.765,8.328c1.883-.283,1.568,4.661.158,4.958h-.099c-1.665-.64-1.071-4.538-.059-4.958Zm-2.058,23.001c1.883-.283,1.568,4.661.158,4.957h-.099c-1.665-.64-1.071-4.538-.059-4.957Zm-.735-5.299l.005-.219c-.047-1.642,1.41-3.918,2.164-1.198.72,3.171-1.874,5.813-2.169,1.417Zm.345,15.587c1.883-.283,1.568,4.662.158,4.958h-.099c-1.665-.64-1.071-4.538-.059-4.958Zm.943-25.082c.721,3.171-1.874,5.812-2.169,1.416l.005-.219c-.047-1.642,1.41-3.917,2.164-1.198Zm-3.457,13.955c-1.883.283-1.568-4.661-.158-4.957h.099c1.665.64,1.071,4.538.059,4.957Zm1.659-18.887c-1.883.283-1.568-4.662-.158-4.958h.099c1.665.64,1.071,4.538.059,4.958Zm-.386-16.898c1.883-.283,1.568,4.661.158,4.957h-.099c-1.665-.64-1.071-4.538-.059-4.957Zm-2.56,21.26c1.883-.283,1.568,4.661.158,4.957h-.099c-1.665-.64-1.071-4.538-.059-4.957Zm-1.501,19.291c1.883-.283,1.568,4.661.158,4.957h-.099c-1.665-.64-1.071-4.538-.059-4.957Zm-1.082-30.691c1.883-.283,1.568,4.662.158,4.958h-.099c-1.665-.64-1.071-4.538-.059-4.958Zm-2.025,16.706c1.883-.283,1.568,4.661.158,4.957h-.099c-1.665-.64-1.071-4.538-.059-4.957Zm13.51,81.227c-.168,2.096-.091,4.24-1.171,5.73-.811,1.196-2.286.626-2.903-.481-2.113-3.498-1.375-8.885-3.29-12.297-1.891-2.558-5.499,1.03-7.884-.283-5.759-4.18,9.052-15.102,13.913-6.231l.096.166c2.181,4.005,1.518,8.879,1.238,13.396Zm3.463-57.414c-1.883.283-1.568-4.662-.158-4.957h.099c1.665.64,1.071,4.538.059,4.957Zm1.221-11.938c-1.883.283-1.568-4.662-.158-4.958h.099c1.665.64,1.071,4.538.059,4.958Zm2.642-23.403c1.883-.283,1.568,4.661.158,4.958h-.099c-1.665-.64-1.071-4.538-.059-4.958Zm.247,15.629c-1.666-.642-1.07-4.541-.059-4.963,1.882-.285,1.568,4.667.158,4.962h-.099Zm1.192,4.57h.099c1.666.64,1.071,4.538.059,4.958-1.883.283-1.568-4.661-.158-4.958Z"/>
  <path class="e" d="m132.963,298.567c36.162,2.316,72.234,4.56,108.572,6.867,49.177,3.104,98.553,6.231,147.777,9.335,15.567.973,31.265,1.99,46.742,2.943,1.875.086,3.488-.103,4.459-.965,1.598-1.278,1.44-4.604,1.39-6.836-.628-64.289-1.238-128.975-1.867-193.421-.139-14.78-.291-29.651-.38-44.37-.044-6.751-.008-13.506.101-20.223.049-3.679-.6-7.658-2.942-10.499-4.885-6.118-13.977-5.718-21.101-6.762-56.798-5.988-113.899-7.627-170.958-9.11-20.073-.487-40.242-.891-60.387-.914-11.036.003-22.057.073-33.058.407-2.67.137-5.457.64-7.469,2.088-5.326,4.163-3.139,14.044-4.329,20.274-5.522,56.738-9.733,113.709-11.773,170.66l-.008.188c-1.048,24.325-.827,48.704-.7,73.064.037,1.775.027,3.818,1.026,5.196.916,1.377,2.716,1.912,4.902,2.08Zm18.535-208.237c.488-7.221.821-14.379,2.082-21.433,1.591-10.31,3.672-16.031,15.162-16.524,29.905-1.376,59.956.335,89.848.998,21.6,1.21,43.214,1.345,64.785,2.567,19.161,1.557,38.355,2.143,57.551,2.518,7.236.114,14.139.239,21.432.99,5.911.824,13.042,1.981,15.16,7.938,2.245,6.59,2.256,13.8,2.528,20.716.353,17.569.396,35.211.313,52.771.477,32.641.606,65.336.207,97.995-.043,5.366-.045,10.735-.192,16.096-.425,5.864.275,13.509-4.497,17.663-3.095,2.441-7.839,2.296-11.792,2.787-11.416,1.287-23.004.526-34.422.17-38.081-.122-75.957-4.274-113.845-7.635-22.58-1.395-44.969-3.929-67.565-5.318-5.809-.387-11.635-.816-17.39-1.675-7.316-1.558-19.129-1.848-21.001-10.918-1.306-6.393-1.331-12.877-1.664-19.415-.251-27.109-.228-54.288.76-81.368l.008-.187c.391-19.636,1.138-39.16,2.531-58.738Z"/>
  <path class="e" d="m454.24,406.947c-.039-3.638-.022-6.319-1.786-8.866-.561-.811-1.205-1.474-1.641-2.052-.069,2.861-.449,5.867-2.088,7.822-6.445,6.729-24.341,4.303-33.341,4.463-21.271-.213-42.43-2.537-63.685-3.321-68.622-2.587-137.309-7.84-205.073-19.124-6.97-1.362-4.699,5.814-4.909,9.998.413,6.397-.839,13.334,2.023,19.269,2.365,4.788,7.217,7.318,12.353,8.474,8.13,1.922,16.653,3.601,25.125,5.004,13.678,2.283,27.444,3.996,41.22,5.572,37.792,4.191,75.566,9.598,113.584,11.834,32.995,1.761,65.866,4.338,98.858,5.09,5.26-.234,11.983-1.265,15.584-4.342,5.08-4.324,3.738-11.72,3.996-17.72.337-7.844-.061-6.972-.221-22.101Z"/>
  <path class="e" d="m136.847,327.829c100.605,5.999,201.131,12.549,301.863,18.285,3.134-.047,3.745-3.011,3.651-5.606-.049-4.704-.038-9.657-.251-13.95-.068-1.676-.529-3.418-2.136-4.186-43.897-4.241-88.225-5.612-132.407-8.895-58.36-3.686-116.584-7.385-174.907-11.064-5.943-.572-5.689,3.025-5.576,7.547.075,4.622-.826,9.896-.061,14.426l.038.133c1.172,3.785,6.482,2.898,9.786,3.31Zm299.393-5.643c.079.121.056.552.072.672v.113c0,.123-.01.295-.033.11.005-.204-.196-.921-.04-.895Zm-10.505,15.076c-.001.024.002.047,0,.075v.008c0-.02-.002-.044-.001-.067v-.016Zm-129.88-17.041c6.89,5.574-.437,15.522-7.277,9.353l-.139-.143c-4.971-4.722,1.826-13.585,7.415-9.21Zm-136.682-3.845c2.041-.967,5.36,1.522,8.001,1.623,18.747.533,37.703.9,56.363,1.875,15.923.86,31.875,2.417,47.703,3.606,5.675-.213,1.389-2-1.37-2.146-19.485-2.346-39.115-3.71-58.695-4.792-12.22-.924-24.458-1.231-36.682-2.018-2.771-.164-6.133-.28-8.555-.878-1.517-.385-2.367-1.011-2.201-1.5.092-.74,2.736-1.05,3.952-1.001,4.106.094,8.358.299,12.571.39,7.39.154,14.69.033,22.033.453,20.729,1.177,41.4,2.206,62.017,4.624,3.801.401,7.712.747,11.39,1.202,1.902.279,3.676.734,5.03,2.05,3.223,3.1,1.94,10.139-2.856,10.955-4.658.824-9.541-.613-14.246-.76-24.532-1.787-49.082-2.874-73.614-3.971-7.575-.33-15.272-.308-22.786-.539-2.675-.074-5.899-.086-7.95-1.856l-.125-.11c-2.102-1.741-2.369-6.002.02-7.207Z"/>
  <path class="e" d="m403.742,399.991c8.366.23,16.749.6,25.121.32,11.064-.049,14.094-4.57,13.774-15.067-.09-9.586-.178-19.356-.279-29.013.158-3.403-1.155-5.993-5.061-6.155-43.068-2.693-86.097-5.246-129.13-7.895-35.314-2.155-70.67-4.304-105.977-6.462-23.291-1.401-46.595-2.87-69.929-4.247-1.818-.071-3.355.163-4.248,1.088-.977.923-1.231,2.823-1.256,4.311-.181,6.974-.459,14.009-.44,21.035-.285,6.616-.053,14.295,7.285,16.813l.172.066c40.197,8.888,81.514,12.15,122.388,16.618,49.133,3.906,98.413,5.405,147.58,8.587Zm-.076-41.809c2.319-.025,4.447,1.559,6.701,1.666,1.698.123,3.362-.663,5.048-1.014,5.128-1.173,8.927,4.049,8.509,8.964-.528,5.435-3.895,10.136-6.961,14.483-7.583,10.781-9.843,6.018-15.524-2.7l-.098-.159c-2.201-3.809-4.893-8.139-4.9-12.751-.016-4.23,2.857-8.631,7.224-8.489Z"/>
  <path class="b" d="m126.444,308.968c-1.585-2.364-4.068-4.538-7.529-6.198-3.735-2.944-22.89-5.949-14.549-12.6,4.294-2.233,9.385-3.581,14.855-4.345-.563-1.663-.88-3.436-.885-5.266-.002-.932.11-1.839.303-2.722-8.464,1.021-18.239,2.583-23.396,9.898-3.453,5.236-1.116,12.303,4.305,15.293,4.532,2.782,9.975,3.976,14.712,6.457,4.107,1.616,8.307,6.887,2.718,8.91-5.215,1.416-10.732-.128-15.97-.885-4.941-.834-10.086-2.039-15.221-1.487-7.759.543-15.005,8.232-12.497,15.985,1.125,2.273,3.757,2.47,5.408.437,2.379-3.338,3.626-8.062,8.449-8.287,8.62-.451,16.999,2.959,25.721,2.908,5.984.322,10.393-1.537,12.994-4.42l.583-13.677Z"/>
  <path class="b" d="m115.411,357.544l-.1-.143c-1.806-2.579-5.087-3.972-8.115-4.882-10.046-2.976-20.063-5.624-30.272-7.752-12.215-2.741-24.677-4.556-37.168-5.387-6.276-.252-9.832,5.548-13.128,9.975-12.786,17.936-35.081,46.341-23.3,66.866,11.199,19.983,37.534,21.027,57.649,17.093,28.224-5.304,57.014-28.206,56.193-58.972.231-5.466,1.31-12.181-1.759-16.797Zm-72.331,68.948l-.189.024c-22.05,2.358-43.772-12.888-32.663-36.317,5.409-13.949,15.239-25.582,23.381-38.052,1.501-2.39,3.571-4.394,6.444-4.562,5.649-.06,11.326,1.042,16.906,1.727,1.377.231,3.275.501,4.158,1.505,1.38,2.005-2.54,5.855-3.844,8.856-.672,1.316-3.343,6.223-1.01,6.673.833-.045,2.07-1.203,3.146-2.753,1.122-1.619,2.105-3.387,3.171-5.034,2.186-3.493,4.238-7.097,8.573-6.669,10.313,1.622,20.507,4.46,30.639,7.195,1.481.422,3.475,1.255,3.639,2.729.236,1.161-.799,2.969-1.601,4.173-9.08,13.891-19.01,27.36-29.969,39.823-8.236,9.223-17.936,19.07-30.781,20.682Zm61.502-31.526c-7.62,13.356-20.658,23.073-34.946,28.519-.97.333-1.599.441-1.716.23-.154-.55,1.507-1.969,2.145-2.63,14.26-14.14,25.577-30.382,36.78-46.898.727-.958,2.85-4.642,3.058-1.763l.007.134c-.019,7.602-1.21,15.792-5.329,22.408Z"/>
  <path class="b" d="m89.9,380.974l.133-.049c3.252-1.625-1.097-3.83-3.086-4.007-4.757-.859-9.517-1.806-14.237-2.892-13.759-3.219-27.662-6.078-41.637-7.978-1.341-.186-3.922-.203-4.343.942-.241.641.45,1.507,1.723,2.143,4.112,1.693,8.905,1.924,13.271,2.797,6.794,1.094,13.574,2.544,20.333,4.072,7.595,1.721,15.162,3.539,22.846,4.861,1.572.274,3.624.599,4.997.112Z"/>
  <path class="b" d="m537.086,330.009l-.002-.168c-.654-49.648-4.817-99.273-5.975-148.918-1.28-42.13-2.886-84.236-5.722-126.288-1.637-12.06-.787-28.318-9.531-37.494-4.153-3.824-10.089-4.63-15.43-5.9-31.85-6.525-64.512-7.609-96.892-10.043-71.738-4.369-143.314,4.319-214.897,8.334-14.912,2.347-39.193,1.328-51.171,9.318-3.594,2.978-4.624,8.196-5.005,12.774-5.795,68.629-11.933,137.337-13.5,206.251-.081,11.445-.069,22.915-.089,34.348.139,2.421-.358,3.864-1.434,4.565l-.395,9.262c1.342,1.159,1.93,3.025,1.833,5.121.014,11.508.034,23.099-.001,34.578-.009,14.448-1.04,28.933-.084,43.326.624,12.132,4.343,11.031,13.609,14.792,2.648,2.083,1.886,5.922,2.063,8.909.304,8.517-.34,17.212.751,25.725.856,6.925,7.121,10.276,13.531,11.502,28.548,7.219,57.898,10.568,87.127,13.727,69.355,9.419,139.235,13.421,209.176,15.946,12.965,1.239,21.095-8.656,28.117-18.075,9.697-12.886,19.406-25.656,29.054-38.562,10.781-15.009,21.904-29.892,30.728-46.167,4.791-8,4.175-18.102,4.139-26.863ZM127.734,218.228l.008-.188c2.04-56.951,6.25-113.922,11.773-170.66,1.19-6.23-.997-16.111,4.329-20.274,2.012-1.448,4.799-1.951,7.469-2.088,11.002-.334,22.022-.404,33.058-.407,20.146.023,40.314.427,60.387.914,57.059,1.483,114.16,3.123,170.958,9.11,7.123,1.044,16.216.644,21.101,6.762,2.342,2.841,2.991,6.82,2.942,10.499-.109,6.717-.145,13.472-.101,20.223.089,14.719.241,29.59.38,44.37.629,64.446,1.239,129.132,1.867,193.421.05,2.232.207,5.558-1.39,6.836-.97.862-2.583,1.051-4.459.965-15.477-.953-31.175-1.97-46.742-2.943-49.224-3.104-98.6-6.23-147.777-9.335-36.338-2.307-72.41-4.551-108.572-6.867-2.186-.168-3.986-.702-4.902-2.08-.999-1.378-.99-3.421-1.026-5.196-.128-24.36-.349-48.738.7-73.064Zm-.711,106.158c-.765-4.53.136-9.804.061-14.426-.113-4.522-.367-8.119,5.576-7.547,58.323,3.679,116.546,7.378,174.907,11.064,44.183,3.283,88.51,4.654,132.407,8.895,1.607.768,2.068,2.51,2.136,4.186.213,4.293.202,9.247.251,13.95.094,2.595-.517,5.559-3.651,5.606-100.732-5.736-201.257-12.286-301.863-18.285-3.304-.412-8.614.474-9.786-3.31l-.038-.133Zm6.751,50.4l-.172-.066c-7.338-2.519-7.57-10.197-7.285-16.813-.02-7.026.259-14.061.44-21.035.026-1.488.279-3.389,1.256-4.311.894-.925,2.43-1.159,4.248-1.088,23.333,1.377,46.638,2.846,69.929,4.247,35.307,2.158,70.663,4.306,105.977,6.462,43.033,2.649,86.063,5.202,129.13,7.895,3.905.162,5.219,2.752,5.061,6.155.101,9.657.189,19.427.279,29.013.32,10.497-2.711,15.018-13.774,15.067-8.373.28-16.755-.09-25.121-.32-49.167-3.182-98.447-4.681-147.58-8.587-40.875-4.467-82.191-7.73-122.388-16.618Zm316.691,71.982c-3.601,3.077-10.325,4.109-15.584,4.342-32.992-.752-65.863-3.329-98.858-5.09-38.018-2.236-75.792-7.643-113.584-11.834-13.776-1.577-27.543-3.289-41.22-5.572-8.472-1.402-16.995-3.082-25.125-5.004-5.136-1.156-9.987-3.686-12.353-8.474-2.862-5.936-1.61-12.872-2.023-19.269.209-4.184-2.062-11.361,4.909-9.998,67.764,11.284,136.452,16.537,205.073,19.124,21.255.784,42.414,3.108,63.685,3.321,9.001-.16,26.896,2.265,33.341-4.463,1.639-1.954,2.019-4.961,2.088-7.822.436.577,1.079,1.241,1.641,2.052,1.763,2.547,1.747,5.229,1.786,8.866.16,15.129.559,14.256.221,22.101-.258,6,1.084,13.396-3.996,17.72Zm72.414-88.186c-17.521,28.331-38.322,54.626-58.465,81.104-1.728,1.649-1.893-.415-1.934-1.928.183-11.1-.218-22.286-1.362-33.296-.423-3.682-1.449-10.516-6.058-10.736-1.608-.088-3.387-.049-4.237.469-.002-.274-.004-.553-.007-.818-.104-7.136-.147-14.294-.222-21.455-1.183-105.308-1.745-210.429-3.308-315.659-.046-2.873-.036-5.726-.096-8.593.011-2.401-.443-5.118.284-7.308.997-2.951,3.86-3.692,7.105-4.673,2.859-.883,5.789-1.631,8.617-2.499,1.528-.583,3.346-1.18,4.178-2.626.675-1.263-.378-2.199-1.712-2.478-1.457-.293-3.182-.179-4.7.057-4.79.703-9.623,1.187-14.561,1.51-5.633.377-11.007-.725-16.645-1.34-76.078-9.068-152.875-10.123-229.406-11.641-.576-.005-1.141-.011-1.658-.018-1.992-.026-3.122-.071-2.68-.15,61.443-2.741,119.371-8.351,122.756-8.433,34.26-.833,62.607.208,62.607.208,27.367.763,54.704,3.293,81.962,5.495,10.956,1.142,22.502,2.415,33.27,4.594,3.196,1.783-15.903,4.066-14.67,8.039.898,2.02,4.05,1.315,5.876,1.072,5.462-1.15,10.938-2.551,16.389-3.851,2.598-.634,5.972-1.291,7.709,1.186,1.819,2.872,2.446,6.518,3.345,10.839,2.486,15.296,2.615,31.444,3.793,46.715,3.713,62.526,4.052,125.193,8.065,187.706.388,7.429.675,14.819.935,22.157.075,2.091.015,4.116-.531,5.997-.583,2.135-1.868,4.137-3.271,5.915-8.675,10.859-17.504,21.301-25.768,32.451-5.781,7.413-11.493,14.865-16.641,22.711-1.477,2.573-6.453,7.39-5.146,10.171,3.316,2.603,14.834-14.969,17.378-17.668,10.356-13.35,21.094-26.442,31.825-39.508,2.066-2.086,2.721-.992,1.531,1.401-.548,1.178-1.453,2.535-2.34,3.634-6.464,7.706-12.499,15.774-18.619,23.756-8.604,11.01-17.686,21.541-25.315,33.239-1.518,1.962-3.982,8.044.689,6.025,3.895-2.44,6.708-6.82,9.734-10.263,9.213-11.639,18.218-23.396,27.878-34.652,1.983-2.419,3.917-4.89,5.838-7.311.785-.851,2.461-3.156,3.298-2.503.579,2.358-2.637,6.166-4.158,8.228-9.329,12.405-19.565,24.06-28.66,36.657-4.405,6.241-9.296,12.246-13.54,18.548-1.008,1.643-2.69,4.06-2.34,5.748,1.499,3.254,7.115-3.885,8.371-5.235,10.14-10.898,26.77-42.665,38.638-47.59,2.024-.84,2.681-.412,2.88-.238,2.166,1.881-4.412,12.806-6.904,16.834Z"/>
  <path class="b" d="m440.72,38.055c.059.009.119.017.178.025-.002.014-.005.029-.007.045l-.005.02c-.007.038-.015.076-.023.114-.046-.069-.096-.135-.143-.203Z"/>
  <path class="b" d="m461.629,454.447s0-.004.004-.008c-.025.018-.048.035-.073.052.023-.015.046-.03.069-.044Z"/>
  <path class="b" d="m469.115,371.129c-4.861-8.871-19.673,2.05-13.913,6.231,2.385,1.313,5.992-2.274,7.884.283,1.915,3.412,1.177,8.798,3.29,12.297.617,1.106,2.092,1.677,2.903.481,1.081-1.49,1.003-3.634,1.171-5.73.28-4.516.943-9.39-1.238-13.396l-.096-.166Z"/>
  <path class="b" d="m148.959,149.256c-.987,27.08-1.011,54.259-.76,81.368.333,6.538.359,13.022,1.664,19.415,1.872,9.07,13.685,9.36,21.001,10.918,5.755.859,11.581,1.287,17.39,1.675,22.596,1.388,44.985,3.923,67.565,5.318,37.888,3.36,75.764,7.512,113.845,7.635,11.418.356,23.005,1.117,34.422-.17,3.953-.491,8.697-.346,11.792-2.787,4.771-4.154,4.072-11.799,4.497-17.663.148-5.361.15-10.73.192-16.096.399-32.659.269-65.354-.207-97.995.083-17.56.039-35.202-.313-52.771-.273-6.916-.283-14.127-2.528-20.716-2.119-5.957-9.25-7.114-15.16-7.938-7.293-.75-14.196-.875-21.432-.99-19.197-.375-38.39-.96-57.551-2.518-21.572-1.222-43.185-1.357-64.785-2.567-29.891-.663-59.943-2.374-89.848-.998-11.49.493-13.571,6.215-15.162,16.524-1.261,7.054-1.595,14.211-2.082,21.433-1.393,19.578-2.14,39.102-2.531,58.738l-.008.187Zm9.797-62.89c.378-5.806.918-11.616,1.75-17.368.275-1.895.689-3.564,1.571-4.294l.089-.072c2.001-1.356,4.67.893,6.796,1.179,1.058.252,2.871.072,2.262-1.375-.531-1.925-6.167-4.261-.496-4.721,20.676-1.8,41.421.792,62.164.724,48.141.643,96.117,4.975,144.234,5.388,7.687.159,15.413.828,23.061,1.318,2.169.186,4.58.306,5.706,1.153,2.254,1.785-.706,5.048.512,7.154.838,1.018,3.224-1.846,4.38-1.102.875.925.83,2.481,1.011,3.753.367,4.857.758,9.718.939,14.569.006,53.809.939,107.688-.343,161.513-.026,1.842.004,7.052-1.087,6.064-.628-.852-1.594-3.3-2.681-4.117-1.513-1.292-2.023.932-1.905,2.109-.065,3.37,3.057,7.348.813,9.839-1.342,1.304-4.729,1.272-7.562,1.52-11.404.823-22.899-.393-34.31-.759-34.395.199-68.61-4.533-102.899-6.729-30.346-2.813-60.636-6.296-90.975-9.111-3.022-.734-10.598-.353-9.508-4.315.722-2.19,3.121-4.673,3.378-7.097.285-1.688-1.219-1.547-2.178-.788-2.097,1.334-4.207,5.16-5.456,5.731-2.496,1.229-1.844-7.553-2.262-9.128-1.175-37.015.057-74.072,1.699-111.103.459-13.294.439-26.649,1.3-39.936Z"/>
  <path class="b" d="m401.342,379.423l.098.159c5.68,8.718,7.941,13.481,15.524,2.7,3.065-4.347,6.432-9.048,6.961-14.483.418-4.916-3.38-10.137-8.509-8.964-1.686.35-3.35,1.136-5.048,1.014-2.254-.107-4.382-1.691-6.701-1.666-4.367-.141-7.24,4.26-7.224,8.489.007,4.612,2.699,8.943,4.9,12.751Zm1.326-16.853l.142-.056c2.624-.968,4.976,2.224,7.101,2.737,2.808.773,5.86-3.863,8.534-1.668,3.148,4.037-1.194,10.825-3.527,14.366-1.472,1.788-2.913,4.797-5.445,4.938-2.507-.535-4.726-5.474-6.196-7.945-1.81-3.395-4.877-9.926-.609-12.372Z"/>
  <path class="b" d="m425.736,337.337c.001-.028-.002-.051,0-.075v.016c-.002.024.001.048,0,.067v-.008Z"/>
  <path class="b" d="m436.313,322.971v-.113c-.016-.12.007-.551-.072-.672-.156-.026.045.691.04.895.022.185.033.013.033-.11Z"/>
  <path class="b" d="m406.877,185.307l-.002.051c0,.006,0,.012,0,.019,0-.023,0-.047.002-.07Z"/>
  <path class="b" d="m406.949,162.643c-.003.06-.006.12-.008.18,0,.004,0,.009,0,.013l.008-.193Z"/>
  <path class="b" d="m165.596,181.873c-.103,7.141-.018,14.557.25,21.726.241,5.831-.229,12.86.662,20.316.752,6.911,2.57,11.365,10.28,11.819,23.138,2.553,46.237,5.85,69.46,7.943,39.893,2.093,79.731,5.727,119.64,7.198,9.008.037,17.982.332,26.83-.525,3.691-.363,7.55-.866,9.758-3.778,3.991-6.194,3.759-14.229,4.121-21.371.436-25.111.073-49.631.324-74.653-.212-19.681,1.16-39.596-.565-59.31-.7-6.555-.794-15.25-9.261-15.436-7.748-.71-15.471-1.488-23.261-1.865-26.51-2.306-53.006-3.349-79.594-4.871-36.567-.88-73.172-3.565-109.728-2.413-11.305.383-11.915,7.184-13.105,16.62-4.29,32.516-4.772,65.64-5.808,98.411l-.002.187Zm5.631-43.539l.01-.187c1.239-19.904.695-40.428,5.886-59.831,4.06-9.786,17.001-7.616,25.584-7.978,48.836,1.044,97.697,2.686,146.434,5.79,14.227,1.285,28.672,1.725,42.817,3.883,6.863.662,9.326,6.669,10.124,12.794,1.496,10.382,1.07,20.92.751,31.37-1.349,34.114-.027,68.353-.305,102.457-.45,6.017.282,14.67-5.865,17.727-3.689,1.833-8.621,2.314-12.908,2.446-8.017.202-16.072.113-24.102-.132-34.949-1.589-69.808-4.794-104.747-6.441-17.114-1.094-34.14-3.222-51.155-5.38-5.507-.703-11.085-1.403-16.521-2.073-4.306-.583-9.14-1.411-12.358-4.417-4.032-3.834-4.643-10.149-4.866-15.492-.913-24.818-.131-49.745,1.22-74.532Z"/>
  <path class="b" d="m406.877,185.413l-.002.043c0,.016.003.032.002.048.001-.028-.001-.059,0-.091Z"/>
  <path class="b" d="m173.507,71.543c.009-.036.016-.073.026-.108-.01.043-.023.086-.033.133.002-.008.005-.017.007-.025Z"/>
  <path class="b" d="m173.5,71.556c-.01.043-.02.09-.029.133.003-.014.007-.028.01-.043.007-.03.012-.06.019-.09Z"/>
  <path class="b" d="m464.167,281.856h.099c1.41-.297,1.725-5.241-.158-4.958-1.012.419-1.606,4.318.059,4.958Z"/>
  <path class="b" d="m459.023,291.716h.099c1.41-.297,1.725-5.242-.158-4.958-1.012.419-1.606,4.318.059,4.958Z"/>
  <path class="b" d="m457.097,308.421c1.41-.296,1.725-5.241-.158-4.957-1.012.419-1.606,4.318.059,4.958h.099Z"/>
  <path class="b" d="m460.105,322.406h.099c1.409-.297,1.725-5.242-.158-4.958-1.012.419-1.606,4.318.059,4.958Z"/>
  <path class="b" d="m465.409,328.767h.099c1.41-.297,1.725-5.242-.158-4.958-1.012.419-1.606,4.318.059,4.958Z"/>
  <path class="b" d="m473.853,322.318h-.099c-1.41.297-1.725,5.242.158,4.958,1.012-.419,1.606-4.318-.059-4.958Z"/>
  <path class="b" d="m479.371,317.092c1.012-.419,1.607-4.318-.059-4.958h-.099c-1.41.297-1.725,5.242.158,4.958Z"/>
  <path class="b" d="m482.039,302.733h.099c1.41-.297,1.725-5.242-.158-4.958-1.012.419-1.606,4.318.059,4.958Z"/>
  <path class="b" d="m480.098,287.695h.099c1.41-.297,1.725-5.241-.158-4.958-1.012.419-1.606,4.318.059,4.958Z"/>
  <path class="b" d="m474.733,279.514h.099c1.41-.297,1.725-5.242-.158-4.958-1.012.419-1.606,4.318.059,4.958Z"/>
  <path class="b" d="m469.622,287.15h.099c1.41-.297,1.725-5.242-.158-4.958-1.012.419-1.606,4.318.059,4.958Z"/>
  <path class="b" d="m464.435,288.837h-.099c-1.41.297-1.725,5.242.158,4.958,1.012-.419,1.606-4.318-.059-4.958Z"/>
  <path class="b" d="m461.606,303.115h.099c1.41-.297,1.725-5.241-.158-4.958-1.012.419-1.606,4.318.059,4.958Z"/>
  <path class="b" d="m462.776,307.724h-.099c-1.41.297-1.725,5.241.158,4.958,1.012-.419,1.606-4.317-.059-4.958Z"/>
  <path class="b" d="m465.799,318.479h.099c1.41-.297,1.725-5.241-.158-4.958-1.012.419-1.606,4.318.059,4.958Z"/>
  <path class="b" d="m470.072,319.117h.099c1.409-.297,1.725-5.242-.158-4.958-1.012.419-1.606,4.318.059,4.958Z"/>
  <path class="b" d="m475.073,310.38h-.099c-1.41.297-1.725,5.242.158,4.958,1.012-.419,1.606-4.318-.059-4.958Z"/>
  <path class="b" d="m477.962,302.601c-1.011.422-1.607,4.321.059,4.963h.099c1.41-.296,1.725-5.248-.158-4.963Z"/>
  <path class="b" d="m477.932,296.893c1.41-.296,1.725-5.241-.158-4.958-1.012.419-1.606,4.318.059,4.958h.099Z"/>
  <path class="b" d="m474.572,285.854h-.099c-1.41.297-1.725,5.241.158,4.958,1.012-.419,1.606-4.318-.059-4.958Z"/>
  <path class="b" d="m467.857,295.479h.099c1.41-.297,1.725-5.242-.158-4.958-1.012.419-1.606,4.318.059,4.958Z"/>
  <path class="b" d="m464.129,299.925l-.005.219c.295,4.396,2.889,1.754,2.169-1.416-.754-2.719-2.21-.444-2.164,1.198Z"/>
  <path class="b" d="m467.174,306.805c-.754-2.72-2.211-.444-2.164,1.198l-.005.219c.295,4.396,2.889,1.754,2.169-1.417Z"/>
  <path class="b" d="m471.171,306.146h-.099c-1.41.297-1.725,5.242.158,4.958,1.012-.419,1.606-4.318-.059-4.958Z"/>
  <path class="b" d="m474.492,301.766h-.099c-1.409.297-1.726,5.246.158,4.963,1.012-.418,1.607-4.321-.059-4.963Z"/>
  <path class="b" d="m474.289,294.304h-.099c-1.41.297-1.725,5.242.158,4.958,1.012-.419,1.606-4.318-.059-4.958Z"/>
  <path class="b" d="m471.089,296.195h.099c1.41-.297,1.725-5.242-.158-4.958-1.012.419-1.606,4.318.059,4.958Z"/>
  <path class="b" d="m469.622,298.863h-.099c-1.41.297-1.725,5.242.158,4.958,1.012-.419,1.606-4.318-.059-4.958Z"/>
  <path class="b" d="m159.153,323.583l.125.11c2.051,1.77,5.275,1.782,7.95,1.856,7.514.232,15.211.21,22.786.539,24.532,1.097,49.082,2.184,73.614,3.971,4.705.147,9.588,1.584,14.246.76,4.796-.816,6.079-7.855,2.856-10.955-1.353-1.316-3.128-1.771-5.03-2.05-3.678-.455-7.589-.8-11.39-1.202-20.617-2.418-41.289-3.447-62.017-4.624-7.343-.421-14.643-.3-22.033-.453-4.212-.09-8.465-.295-12.571-.39-1.216-.05-3.86.26-3.952,1.001-.166.489.684,1.114,2.201,1.5,2.421.597,5.784.714,8.555.878,12.224.787,24.462,1.094,36.682,2.018,19.58,1.082,39.21,2.446,58.695,4.792,2.76.147,7.045,1.933,1.37,2.146-15.829-1.189-31.781-2.746-47.703-3.606-18.66-.974-37.617-1.342-56.363-1.875-2.641-.102-5.96-2.59-8.001-1.623-2.389,1.206-2.122,5.466-.02,7.207Z"/>
  <path class="b" d="m288.439,329.431l.139.143c6.84,6.169,14.167-3.779,7.277-9.353-5.589-4.374-12.386,4.488-7.415,9.21Zm4.153-6.383l.155.008c1.606.333,2.369,3.067,1.093,4.177-.688.528-1.658.227-2.322-.406-1.493-1.086-.563-3.53,1.074-3.779Z"/>
  <rect class="b" x="229.991" y="123.365" width="13.102" height="13.102" transform="translate(5.751 -9.962) rotate(2.442)"/>
  <rect class="b" x="307.084" y="126.973" width="13.102" height="13.102" transform="translate(5.975 -13.244) rotate(2.442)"/>
  <path class="b" d="m318.721,170.7l-.337,7.897c-7.977,4.637-15.735,8.014-23.275,10.132-7.54,2.118-14.978,3.02-22.316,2.707-7.403-.316-14.771-1.85-22.103-4.602-7.332-2.752-14.775-6.778-22.328-12.077l.337-7.897c7.447,4.702,14.858,8.289,22.235,10.763,7.377,2.474,14.8,3.87,22.269,4.188,7.502.32,15.033-.438,22.594-2.275,7.561-1.837,15.202-4.782,22.923-8.837Z"/>
</svg>