<?xml version="1.0" encoding="UTF-8"?><svg id="b" xmlns="http://www.w3.org/2000/svg" viewBox="0 0 110.676 83.666"><defs><style>.d{opacity:.5;}</style></defs><g id="c"><g class="d"><path d="M3.172,3.674c.803-.903,4.138-3.127,5.294-3.421L99.919.001c4.448-.091,9.67,4.305,10.207,8.718,1.877,15.436-1.848,34.13.507,49.811-1.141,9.334,3.059,23.286-10.213,25.136H10.204c-5.879-.621-9.268-5.015-9.713-10.704-1.565-20.018,1.222-42.028,0-62.258.179-2.376,1.09-5.24,2.681-7.029ZM5.491,8.73v50.524l27.177-22.425,30.583,24.708c1.978.165,18.819-16.571,22.206-16.767.731-.042,1.436.027,2.018.522l16.916,13.961,1.239-.745V9.726c0-1.438-3.56-5.52-5.704-4.755l-88.725.007c-1.953-.432-5.286,2.118-5.71,3.752ZM103.489,77.521c2.708-2.45,2.406-7.963,1.882-11.287l-19.489-15.889-21.112,16.614-2.197.252-29.422-24.389-27.197,22.618c-.901,5.257-1.893,12.147,4.801,13.693l88.176.057c1.2-.014,3.71-.902,4.559-1.67Z"/><path d="M74.561,17.143c.128.083,2.057,2.047,2.144,2.179,9.447,14.269-8.749,27.599-19.146,17.029-10.46-10.634,2.657-28.469,17.002-19.208ZM72.083,33.203c2.719-2.65,3.079-8.484.428-11.292-6.025-6.382-16.917.116-12.968,8.975,1.994,4.475,9.202,5.571,12.541,2.318Z"/></g></g></svg>