<?xml version="1.0" encoding="UTF-8"?>
<svg id="Layer_2" data-name="Layer 2" xmlns="http://www.w3.org/2000/svg" viewBox="0 0 323.73 265.38">
  <defs>
    <style>
      .cls-1 {
        fill: #fff;
      }
    </style>
  </defs>
  <g id="Layer_1-2" data-name="Layer 1">
    <g>
      <path d="M51.65.12l29.11.14c.85.41,3.91,8.82,4.5,10.48,3.87,10.92,6.59,21.95,11.58,32.36.41.85.97,2.42,1.17,3.32,1.48,6.82,3.62,11.5,5.84,18.13,3.74,11.19,7.22,22.62,11.12,33.82.65,1.86,2.04,2.58,2.61,3.88.9,2.04,2.79,8.64,3.64,11.34,2.65,8.37,5.32,15.86,8.49,23.97.92,2.35,2.13,9.32-.53,10.5-8.49.17-17.06,1.65-25.46.02-.75-.35-3.65-6.9-4.23-8.25-1.2-2.81-4.27-13.16-6.76-14.21-17.79-.27-35.81-.81-53.57.34-2.28,1.03-2.28,3.56-3.14,5.34-.41.85-1.34,1.5-1.81,2.68-1.91,4.84-.95,10.6-6.39,14.08-4.22.02-8.54.79-12.75.78-1.18,0-2.27-.5-3.45-.54-2.04-.06-9.09.64-10.01-.98-.93-3.01-.49-6.06.5-8.99,3.21-9.54,7.39-18.79,10.49-28.46.67-2.1.78-4.89,1.37-6.62.39-1.13,2.69-2.74,3.15-4.34.43-1.46.11-2.98.45-4.55.47-2.23,2.26-4.07,2.93-6.05.75-2.21.68-4.73,1.45-7.04.68-2.03,2.28-3.68,2.92-5.57s.5-4.48,1.21-6.28c.51-1.29,1.64-1.76,2.13-2.87.83-1.88,1.07-5.29,1.9-7.59,2.9-8.02,5.54-15.96,8.47-23.99,3.37-9.24,6.56-18.65,10.13-27.82.8-2.04.78-6.4,2.96-7.03ZM64.11,50.54c-1.85.64-2.35,6.34-2.96,8.02-2.02,5.56-5.5,12.97-7,18.47-.56,2.03-.49,4.51-1.09,6.4-1.01,3.17-3.52,3.5-3.26,8.21.34,6.12,3.18,3.83,7.22,3.74,6.47-.14,13.05-.11,19.52,0,1.94.03,3.41,1.53,4.62-.84,1.14-2.23,1.24-5.3.36-7.63-.53-1.41-1.94-2.56-2.49-4-.76-1.97-.56-3.96-1.1-5.9-1.4-5.06-5.25-13-7.18-18.29-1.19-3.27-.87-10.18-6.64-8.18Z"/>
      <path d="M3.21,176.9l307.06-.13c2.89.85,11.95-.99,13.11,2.87.62,2.04.27,14.45.09,17.38-.06,1.03-.57,6.42-.75,6.74-.51.93-3.78,2.15-4.97,2.02l-315.38-.28c-3.64-2.48-2.01-7.03-1.99-10.45.02-3.05-.57-14.23.45-16.03.22-.38,1.95-1.99,2.38-2.12Z"/>
      <path d="M3.21,234.33l205.6-.06c2.98.15,3.96,2.63,4.23,5.25.21,1.99-.39,3.47-.34,4.94.16,4.61,1.13,10.93.37,15.45-.3,1.77-2.2,3.83-3.48,5.01l-193.56-.19c-4.98.21-14.83,2.82-15.69-4.28-.54-4.44.05-10.81.03-15.51-.01-3.46-1.78-9.1,2.83-10.61Z"/>
      <path d="M160.57,59.09c49.33,1.28,100.01-2.22,149.2-.17,2.43.1,6.77.22,8.93.55,1.5.23,4.38,1.67,4.67,3.32l.1,23.35c-.39,2.04-3.48,2.62-5.21,2.78l-161.3-.05c-4.81-.76-3.19-7.61-3.25-11.23-.04-2.34-.04-4.11,0-6.45.12-6.39-1.89-12.15,6.87-12.11Z"/>
      <path d="M156.53,117.48h126.62c1.27.48,3.08.59,3.37,2.14.7,3.77,0,12.17-.02,16.5,0,1.06.53,2.04.52,2.98-.04,2.82-1.04,9.25-4.73,9.25l-125.35-.02c-1-.18-1.97-1.22-2.37-2.12-1.33-2.96-1.3-20.63-.83-24.53.23-1.9.69-3.73,2.8-4.19Z"/>
      <path d="M153.78,1.62l4.62-1.62,67.83.12c1.19.57,1.71,1.32,1.88,2.62.47,3.62.44,21.02-.37,24.15-.26,1.01-1.2,2.9-2.16,3.33-.34.15-5.57.78-6.26.78-3.41-.01-6.62-.5-10.44-.5-17.28.03-34.57.02-51.86-.12-1.68-1.02-2.86-2.77-3.32-4.67l.07-24.09Z"/>
      <path class="cls-1" d="M64.11,50.54c5.77-2,5.45,4.92,6.64,8.18,1.92,5.29,5.78,13.23,7.18,18.29.53,1.93.33,3.92,1.1,5.9.56,1.44,1.96,2.59,2.49,4,.88,2.33.77,5.41-.36,7.63-1.2,2.36-2.67.87-4.62.84-6.47-.11-13.05-.14-19.52,0-4.04.08-6.88,2.38-7.22-3.74-.26-4.71,2.25-5.04,3.26-8.21.6-1.89.54-4.37,1.09-6.4,1.5-5.5,4.99-12.91,7-18.47.61-1.68,1.12-7.38,2.96-8.02Z"/>
    </g>
  </g>
</svg>