<?xml version="1.0" encoding="UTF-8"?>
<svg id="b" data-name="Layer 2" xmlns="http://www.w3.org/2000/svg" width="145.656" height="145.643" viewBox="0 0 145.656 145.643">
  <g id="c" data-name="Layer 1">
    <g>
      <path d="M40.07,90.503c3.323.086,6.678-.061,10.003-.002l.216,4.534,4.784.471v-5.005s-4.784-.466-4.784-.466l-.221-4.534,5.003.003v-9.25c1.19-1.371,3.353-.564,5-.75v9.25l.828.67c.632.141,1.278.111,1.922.111,1.025,0,2.116.167,2.75-.781v-14.25l4.503-.002.216,4.534,4.784.466.067,4.183.75.75h13.86c1.338-.437.889-3.766.601-4.962l-4.784-.466v-4.505s4.534-.216,4.534-.216l.468-4.782h10l-.002,5.003,4.534.216.468,4.782h9.25c1.454.68.391,4.647.747,5.002l4.511.285-.006,4.215c-5.973-.586-4.386,1.075-5.002,5.498h-9.5l-.002-5.003,4.783-.465-.351-4.963-4.431-.072-.216,4.534-4.784.471-.466-4.784-4.532-.218v9.75c-1.189,1.369-3.355.567-5.003.752l-.289-5.059c-1.492-.558-4.527-1.064-5.108.907l-.031,18.33c.489,1.493,4.135.596,5.433.817l.015,4.16c-.101.33-1.129.843-1.268.843h-9.25v9.5l-4.503.003-.288-4.559c-1.714-.649-3.487-.655-5.139.128l.398,4.71,4.534.216.068,9.182.747.753,3.963.536-.257,4.322c-4.738-.764-4.469.422-4.741,4.743-.51.737-3.556.737-4.066,0-.577-1.45.428-3.977-1.213-4.783l-4.504.25v9.25l-.75.75h-18.5c-1.454-.681-.391-4.645-.748-5.002l-4.559-.289-.226-9.241,4.784-.471.216,4.534,4.784.466-.002,5.003h10l.718-9.532,4.782-1.218v-14.25l-10.503-.003.471,4.784,4.534.216-.002,4.503h-9.25c-1.453.68-.392,4.648-.747,5.002l-5.003-.002v-13.75c.68-1.454,4.648-.392,5.002-.747.019-1.662-.032-3.341-.002-5.003,5.253.068,14.343.713,19.138-.135.408-.072,1.268-.202,1.382-.697l-.02-4.168h9.25c1.371-1.19.564-3.353.75-5h-10l.003-5.003h-5.505s.471,4.784.471,4.784l4.534.216-.471,4.784-8.212.148-.75-.75-.067-4.183-5.215-.006-.755,4.79c-.672.464-3.455.219-4.532.218-.029-1.662.022-3.341.003-5.003-1.66-.036-3.343.055-5.003.003-.052-1.66.038-3.342.003-5.003-1.662-.019-3.341.032-5.003.003-.043-1.661.03-3.339,0-5-1.471-.038-2.966.12-4.43-.07l-.35-4.463,4.782-.469c.019,1.662-.032,3.341-.003,5.003ZM80.57,85.503c0-.516-9.022-.89-10.209-.056l.177,4.838,4.534.216.466,4.784c1.565.301,3.888.732,5.032-.532v-9.25Z"/>
      <path d="M50.07,110.503c-3.163-.041-6.385.22-9.532-.218l-.468-4.782h-19.5l-.002-5.003c4.473.649,6.567-.594,4.252-4.997h-9.75v9.25c-1.024,1.206-3.1.88-4.524.518l.024-4.768H.82c-1.371-1.19-.564-3.353-.75-5h10c-.162-.491.5-1.085.5-1.25v-8.75l4.503-.002.216,4.534,4.71.398.569-4.932h4.505c.356.355-.706,4.323.747,5.003h9.25c0,1.662,0,3.338,0,5-1.662.029-3.341-.022-5.003-.003l.471,4.784,4.534.221-.003-5.003c1.658-.029,3.342-.029,5,0,.03,1.164-.345,4.22.468,4.782,1.473.448,3.03.171,4.532.218.037,1.168-.35,4.216.468,4.782,1.469.415,3.033.217,4.532.218.029,1.658.029,3.342,0,5Z"/>
      <path d="M114.82,95.503c1.241.383.626,3.859.747,5.002l9.534-.221.471-4.784-4.534-.216-.471-4.784,4.534-.216.756-4.79,4.215.006.568,4.933c5.714-.172,4.773-.004,4.432,5.073l-5.003-.003v14.5l5.498.503-.717,4.527-4.313.687-.465,4.285c-1.07-.178-5.002-.112-5.002,1.248v13.75h-9.5v-8.75c0-.138-.513-1.166-.843-1.268l-4.157.018v9.25c0,.078-.531,1.241-.824,1.285l-4.178-.537v5.505s4.781.464,4.781.464l-.28,4.533h-9.5v-15l4.78-.468c.533-.769.29-4.843-.612-5.053l-4.17.018.005,5.005-5.003-.003v-14.5c1.647-.186,3.81.621,5-.75v-9.25l-5.003.003.005-5.005-5.011-.285.006-4.715,4.534-.216.466-4.784h5.005s-.003,5.002-.003,5.002h14.25ZM120.57,105.503h-15v15h14.25l.75-.75v-14.25Z"/>
      <path d="M95.57,35.003c-1.662,0-3.34,0-5.003.002l-.216-4.534c-.523-.749-4.541-.749-5.063,0l-.216,4.534-4.503-.002v-14.5l4.502-.002.245,4.005c.771,1.585,3.794,1.092,5.182.426l.067-4.431h5.005c.054,4.825-.082,9.678-.003,14.503,1.662,0,3.34,0,5.003.002-.649-4.473.594-6.567,4.997-4.252v24.25h10l-.468-4.782-4.532-.218v-10h9.5v14.25l.75.75h9.25v14.25c0,.138.513,1.165.842,1.269l4.184.216.342,3.536c-.22,1.434-3.99.297-4.797.799l-.571,4.93h-9.5l-.002-4.503,4.183-.067.75-.75-.148-14.212-4.71-.398-.569,4.932-4.505-.005-.067,4.183-.75.75-4.183.072c-.355-.354.706-4.323-.747-5.002h-9.25l-.468-4.782-4.534-.216-.006-4.715,5.009-.288v-14.25c-.68-1.454-4.648-.392-5.002-.747-.018-1.662.03-3.341.002-5.003Z"/>
      <path d="M145.57,35.003h-35V.003h34.25l.75.75v34.25ZM140.57,5.003h-25v25h25V5.003Z"/>
      <path d="M35.07.003v35H.07V.753L.82.003h34.25ZM30.07,5.003H5.07v25h25V5.003Z"/>
      <path d="M35.07,110.503v35H.82l-.75-.75v-34.25h35ZM30.07,115.503H5.07v25h25v-25Z"/>
      <path d="M50.07,35.003c-.024,1.662.017,3.341-.002,5.003.355.356,4.323-.706,5.002.747v29.25h-9.25c-1.453-.68-.392-4.648-.747-5.002l-5.005.005.005-5.005c-1.243-.191-4.446.638-4.933-.817l.502-4.111,4.431-.067.216-9.534,4.784-.466v-5.005s-5.002.003-5.002.003v-14.5h10l.002,4.503-4.784.466-.221,4.534c1.662-.002,3.34-.003,5.003-.003.022-1.487-.055-2.991.027-4.475l4.507-.311.469,4.789c-1.662-.002-3.34-.003-5.003-.003ZM50.072,55l-4.784.471.25,4.813,4.534.221v-5.505Z"/>
      <path d="M70.07,15.003c.491-.162,1.085.5,1.25.5h8.75l.002,4.503-4.784.466-.221,14.534,4.534.216.471,4.784c-.354.355-4.323-.706-5.002.747v9.25l-4.503.002-.216-4.534-4.784-.466-.466-4.784-4.532-.218v-14.5h4.5v9.5h5.5v-9.25c-1.19-1.371-3.353-.564-5-.75V5.753c.999-1.164,3.501-1.164,4.5,0v9.25Z"/>
      <path d="M.07,55.503l4.533-.28.448,4.438c.104.328,1.131.842,1.269.842h28.75l.002,4.503-4.534.216-.468,4.782h-14.5l-.572-4.93-4.711.397-.294,3.706-.674.826H.82l-.75-.75v-13.75Z"/>
      <polygon points="140.57 115.503 140.57 130.503 145.102 130.721 145.521 134.954 130.57 135.003 130.57 126.253 131.396 125.579 134.743 125.426 135.57 124.753 135.57 115.503 140.57 115.503"/>
      <path d="M85.57,115.503l4.181.07.75.75.067,14.183,4.784.466.149,8.961-4.463.351-.537-4.708c-1.695-1.287-3.823.366-4.93-.822v-19.25Z"/>
      <path d="M145.57,105.503v9.5l-4.971-.027-.027-4.476c-.355-.356-4.322.706-5.002-.747v-14.25l4.782.468.437,9.064,4.782.468Z"/>
      <path d="M105.07.003c-.162.491.5,1.085.5,1.25v13l-.75.75h-9.25l-.003-4.502c4.076.327,6.338-.979,4.535-5.28l-4.534-.216.002-5.003h9.5Z"/>
      <polygon points="90.57 35.503 90.57 50.003 85.567 50.005 85.351 45.471 80.567 45.005 80.561 40.291 85.572 40.005 86.037 35.223 90.57 35.503"/>
      <path d="M15.07,50.003H5.82l-.75-.75v-8.75c.491.162,1.085-.5,1.25-.5h8l.75.75v9.25Z"/>
      <path d="M55.07,15.003l-4.532-.218-.466-4.784-4.784-.466c-.129-1.596-.915-8.967.601-9.462l4.183-.072-.005,5.005c.354.356,4.323-.706,5.002.747v9.25Z"/>
      <path d="M145.57,95.003c-1.608.358-3.705,1.223-5-.25v-9.25l-4.781-.966c-.369-1.307-.619-3.113.531-4.034h8.5l.75.75v13.75Z"/>
      <path d="M130.07,135.503v10h-13.75c-1.371-1.19-.564-3.353-.75-5h9.25l.674-.826.545-3.955,4.032-.218Z"/>
      <path d="M145.57,55.003l-5.003.003.005-5.005-5.005.005c.186-1.647-.616-3.813.753-5.003h8.5l.75.75v9.25Z"/>
      <path d="M9.32,80.503c1.177.363.671,3.43.753,4.503l-4.933.568-.536,4.709-4.533-.28v-8.75l.75-.75h8.5Z"/>
      <path d="M90.57,10.503v8.75c-1.189,1.369-3.355.566-5.003.753l.005-5.005-5.005.005.003-4.503h10Z"/>
      <path d="M50.07,75.503v9.5l-4.532-.218-.466-4.784c-4.007.499-6.686-.193-4.252-4.498h9.25Z"/>
      <path d="M84.32.003c1.09.336.907,3.521.531,4.532l-4.563.937-.216,4.534c-1.508-.139-3.439.552-4.503-.752V.753L76.32.003h8Z"/>
      <rect x="15.57" y="75.503" width="14.5" height="4.5"/>
      <path d="M30.07,45.003c.048-1.503-.23-3.059.218-4.532l4.784-.47v5.005c-1.662.018-3.341-.03-5.003-.003-.053,1.659.038,3.341,0,5h-9.5l-.003-5.003c3.159-.034,6.344.055,9.503.003Z"/>
      <path d="M75.57,140.503h8.75c1.18,1.075,1.18,3.925,0,5h-8c-1.371-1.19-.564-3.353-.75-5Z"/>
      <path d="M140.57,65.503c1.647.186,3.81-.621,5,.75v8c-1.075,1.18-3.925,1.18-5,0v-8.75Z"/>
      <path d="M130.07,40.003v10h-4.5v-9.25c1.065-1.307,2.992-.61,4.5-.75Z"/>
      <rect x="80.57" y="60.503" width="4.5" height="9.5"/>
      <path d="M90.567,10.005l.221-4.534,4.314-.249c1.707,4.71-.175,5.232-4.534,4.783Z"/>
      <path d="M141.388,140.574c3.012-.988,4.598.069,4.21,3.198-.251,2.022-1.335,2.001-3.298,1.759-2.816-.348-2.009-4.597-.912-4.957Z"/>
      <path d="M35.072,50v5.005c-1.147-.16-4.137.445-4.789-.469l.311-4.507,4.478-.03Z"/>
      <path d="M55.641.074l4.209.397c1.16,4.222-.569,5.628-4.561,4.065l.352-4.462Z"/>
      <polygon points="135.072 50 135.358 54.518 130.567 55.005 130.788 50.471 135.072 50"/>
      <path d="M20.072,55.005h-4.505s0-5.005,0-5.005c1.088.128,3.671-.41,4.284.471l.221,4.534Z"/>
      <path d="M65.072,45v5.005s-4.505,0-4.505,0l.221-4.534c.613-.881,3.196-.342,4.284-.471Z"/>
      <path d="M60.072,20.5v4.505c-1.163-.159-4.149.446-4.784-.471l-.221-4.034h5.005Z"/>
      <path d="M45.072,15.5v4.505c-1.163-.159-4.149.446-4.784-.471l-.221-4.034h5.005Z"/>
      <path d="M35.072,70.5v4.505c-2.82-.141-5.468,1.09-5.038-2.764.316-2.83,2.826-1.471,5.038-1.741Z"/>
      <path d="M40.072,65.5v4.505c-2.82-.141-5.468,1.09-5.038-2.764.316-2.83,2.826-1.471,5.038-1.741Z"/>
      <path d="M85.072,55.005h-4.505c.141-2.82-1.09-5.468,2.764-5.038,2.83.316,1.471,2.826,1.741,5.038Z"/>
      <path d="M80.072,60.005h-4.505c.141-2.82-1.09-5.468,2.764-5.038,2.83.316,1.471,2.826,1.741,5.038Z"/>
      <path d="M136.388,60.574l3.962.396-.249,3.814-4.312-.249c-.345-1.061-.653-3.55.599-3.961Z"/>
      <path d="M35.072,80.5v4.505c-1.154-.159-4.13.444-4.793-.471l.316-4.004,4.477-.03Z"/>
      <rect x="115.567" y="70.5" width="4.505" height="4.505"/>
      <rect x="70.567" y="65.5" width="4.505" height="4.505"/>
      <path d="M115.572,110.5l-.221,4.534c-.638.917-3.62.311-4.784.471v-5.005s5.005,0,5.005,0Z"/>
      <path d="M135.07,25.003h-14.5v-14.5h13.25c.269,0,.542-.727,1.292.241.572.42-.042.849-.042,1.009v13.25Z"/>
      <path d="M25.07,10.503v14.5h-14.5v-13.25c0-.16-.615-.589-.042-1.009l.544-.496c.413-.137.643.255.748.255h13.25Z"/>
      <path d="M25.07,120.503v14.5h-13.25c-.16,0-.589.615-1.009.042l-.496-.544c-.137-.413.255-.643.255-.748v-13.25h14.5Z"/>
    </g>
  </g>
</svg>